<?xml version="1.0" encoding="utf-8"?>
<!-- Generator: Adobe Illustrator 27.5.0, SVG Export Plug-In . SVG Version: 6.00 Build 0)  -->
<svg version="1.1" xmlns="http://www.w3.org/2000/svg" xmlns:xlink="http://www.w3.org/1999/xlink" x="0px" y="0px"
	 viewBox="0 0 750 500" style="enable-background:new 0 0 750 500;" xml:space="preserve">
<g id="BACKGROUND">
	<rect style="fill:#FFFFFF;" width="750" height="500"/>
	<g>
		<polyline style="fill:none;stroke:#EDDBBB;stroke-width:2;stroke-miterlimit:10;" points="102.694,381.22 356.333,443.98 
			665.618,409.204 		"/>
		<polyline style="fill:none;stroke:#EDDBBB;stroke-width:2;stroke-miterlimit:10;" points="138.24,446.687 90.214,381.22 
			289.197,372.247 468.556,402.836 673.77,409.467 603.308,465.125 399.029,459.501 197.687,448.671 289.609,358.323 
			391.006,451.602 470.581,389.59 599.301,452.458 		"/>
	</g>
</g>
<g id="OBJECTS">
	<g>
		<path style="fill:#EDDBBB;" d="M554.742,456.715c0.183,9.922,19.559,17.61,43.276,17.172c23.718-0.438,42.796-8.836,42.613-18.758
			c-0.183-9.922-19.559-17.61-43.276-17.172C573.637,438.395,554.559,446.793,554.742,456.715z"/>
		<g>
			<g>
				<g>
					<path style="fill:#FA7C4E;" d="M583.965,338.711c0.283,0.492,1.033,5.8,1.033,5.8l21.461,0.642l1.49-8.944L583.965,338.711z"/>
					<path style="fill:#CC4444;" d="M584.231,339.748c-0.104-0.527-0.198-0.92-0.266-1.037l23.984-2.503l-1.047,6.24
						C599.415,341.116,591.734,340.985,584.231,339.748z"/>
				</g>
				<g>
					<g>
						<g>
							<g>
								<path style="fill:#FEA26F;" d="M612.546,440.322l2.18,12.729c0,0,2.608-2.768,3.29-2.794
									c1.241-0.047,2.917-2.318,2.917-2.318l0.039-7.227L612.546,440.322z"/>
								<polygon style="fill:#FA7C4E;" points="616.869,438.074 618.233,451.787 621.306,451.984 621.038,438.278 								"/>
								<path style="fill:#8F3E2B;" d="M622.041,450.813l1.634,3.608c0.387,0.652,0.141,1.412-0.602,1.844
									c-1.204,0.701-6.65,1.176-7.855,0.59c-0.809-0.393-1.555-0.304-1.434-1.013l0.364-3.455c0.014-0.082,1.433-2.65,4.091-2.679
									C620.339,449.684,622,450.744,622.041,450.813z"/>
								<g>
									<g>
										<path style="fill:#29344F;" d="M616.041,451.602l-0.165-0.174c1.847-1.75,4.4-0.513,4.426-0.5l-0.107,0.215
											C620.171,451.131,617.764,449.97,616.041,451.602z"/>
									</g>
									<g>
										<path style="fill:#29344F;" d="M616.165,453.013L616,452.839c1.845-1.748,4.4-0.512,4.426-0.5l-0.107,0.215
											C620.295,452.542,617.887,451.382,616.165,453.013z"/>
									</g>
								</g>
							</g>
							<path style="fill:#FFB619;" d="M576.051,362.789c2.958-12.68,8.563-19.619,8.563-19.619l22.026,0.837
								c0,0,4.393,10.791,6.03,18.383c2.75,12.755,9.089,82.325,9.089,82.325c-6.855,0.693-9.316,0.926-9.316,0.926
								s-11.922-44.639-17.572-72.085c-0.369-1.793-1.594-1.691-1.705,0.129c-0.559,9.157-8.009,70.763-8.009,70.763l-8.243-0.754
								c-0.073,0.367-0.829-17.816-2.641-41.538C573.063,386.287,573.435,374.681,576.051,362.789z"/>
							<path style="fill:#F58616;" d="M584.614,343.171l28.057,19.22c0,0-4.118-13.944-6.03-18.383L584.614,343.171z"/>
							<g>
								<g>
									<path style="fill:#FEA26F;" d="M585.046,443.319l-0.38,10.297c0,0-1.821,1.094-4.183,0.36
										c-2.177-0.677-3.254-3.194-3.254-3.194l-0.49-7.67L585.046,443.319z"/>
									<polygon style="fill:#FA7C4E;" points="581.023,443.55 581.017,455.363 584.617,453.522 584.87,444.106 									"/>
									<path style="fill:#8F3E2B;" d="M577.194,450.484l-4.341,2.129c-1.098,0.539-1.791,1.63-1.706,2.795
										c0.022,0.299,0.089,0.507,0.22,0.509c0,0,13.261,0.048,13.282-0.141c0.13-1.176,0.277-1.694,0.072-2.768
										c-0.03-0.154-2.597,0.751-3.636,0.388C580.389,453.152,577.194,450.484,577.194,450.484z"/>
									<g>
										<g>
											
												<rect x="577.324" y="450.42" transform="matrix(0.6925 -0.7215 0.7215 0.6925 -148.5295 555.6223)" style="fill:#29344F;" width="0.233" height="3.212"/>
										</g>
										<g>
											
												<rect x="576.175" y="450.971" transform="matrix(0.6925 -0.7215 0.7215 0.6925 -149.2814 554.9614)" style="fill:#29344F;" width="0.233" height="3.212"/>
										</g>
									</g>
								</g>
								<g>
									<path style="fill:#FFFFFF;" d="M578.405,440.574c-0.024-0.168-2.458-17.001-2.938-36.862
										c-0.443-18.339,0.737-43.085,8.876-56.825l0.197,0.116c-8.111,13.694-9.287,38.392-8.844,56.701
										c0.479,19.848,2.911,36.669,2.935,36.837L578.405,440.574z"/>
								</g>
								<path style="fill:#F58616;" d="M586.52,431.171c-0.995,7.701-1.493,12.81-1.493,12.81l-8.58-0.267
									c-0.027,0.137,0.616-2.693,0.05-7.155C581.227,436.591,582.72,433.718,586.52,431.171z"/>
								<polygon style="fill:#FFB619;" points="575.164,445.469 586.191,445.438 586.628,441.941 575.024,440.248 								"/>
							</g>
							<g>
								<polygon style="fill:#FFFFFF;" points="608.396,347.709 582.485,346.771 582.493,346.543 608.404,347.481 								"/>
							</g>
							<g>
								<g>
									<path style="fill:#FFFFFF;" d="M617.383,441.326h-0.228c0.001-0.689-0.032-69.191-11.554-93.862l0.207-0.097
										C617.35,372.084,617.384,440.637,617.383,441.326z"/>
								</g>
								<path style="fill:#F58616;" d="M613.778,438.586c2.549-1.504,4.933-3.348,6.798-5.599
									c0.513,7.285,1.078,11.773,1.078,11.773c-6.855,0.693-7.508,0.471-7.508,0.471s-1.657-2.084-2.469-5.223
									C612.638,439.55,612.869,439.122,613.778,438.586z"/>
							</g>
							<g>
								<g>
									<path style="fill:#FA7C4E;" d="M563.392,302.611c0.6,0.101,1.528,3.132,1.703,3.007c0.175-0.125-1.027-3.356-0.552-3.43
										c0.475-0.074,1.403,2.957,1.703,3.007c0.3,0.051-1.053-3.206-0.427-3.255c0.625-0.049,1.828,3.182,2.153,3.083
										c0.325-0.099-1.378-3.107-0.728-3.305c0.651-0.199,3.149,4.727,3.274,4.902c0.125,0.175,1.852-2.635,2.579-2.861
										c0.698-0.216,0.474,0.851,0.474,0.851c-0.995,2.692-1.581,2.414-1.264,7.262c0.606,3.292,3.032,12.359,4.211,16.62
										c0,0,7.695-17.67,13.975-14.328c10.495,2.502-9.07,24.124-13.319,27.695c-4.114,3.457-7.836,1.509-8.832-2.974
										c-2.066-9.301-2.184-20.509-2.161-24.223l-0.098-1.012c0,0-1.247-3.676-1.995-7.349
										C563.898,305.364,562.942,302.535,563.392,302.611z"/>
									<path style="fill:#842B28;" d="M592.258,314.612c0,0-4.693-3.895-7.75-0.629c-3.057,3.266-5.663,9.244-5.663,9.244
										l3.989,6.417L592.258,314.612z"/>
								</g>
								<g>
									<path style="fill:#842B28;" d="M585.378,308.047c-1.247-4.146,5.518-7.004,5.832-11.709
										c0.172-2.586,2.841-4.938,5.915-4.938c10.411,0,10.6,4.007,9.886,9.393c-0.15,1.133,4.236,7.442,0.054,8.462
										C601.179,310.692,591.097,307.702,585.378,308.047z"/>
									<path style="fill:#842B28;" d="M601.584,303.922c0,0,2.934-1.487,2.167-4.114c-1.926-6.595-5.193-2.554-5.193-2.554
										L601.584,303.922z"/>
									<g>
										<path style="fill:#FFFFFF;" d="M593.098,307.579c-0.063,0-0.126-0.002-0.19-0.006c-0.745-0.05-1.425-0.386-1.917-0.948
											c-0.492-0.562-0.735-1.281-0.685-2.025l0,0c0.049-0.745,0.386-1.425,0.948-1.917c0.562-0.491,1.282-0.732,2.025-0.685
											c0.745,0.05,1.425,0.386,1.917,0.948c0.492,0.562,0.735,1.281,0.685,2.025c-0.049,0.745-0.386,1.425-0.948,1.917
											C594.42,307.337,593.774,307.579,593.098,307.579z M590.539,304.615l0.232,0.016c-0.041,0.62,0.161,1.22,0.571,1.688
											c0.41,0.468,0.977,0.749,1.597,0.79c0.619,0.042,1.22-0.161,1.688-0.571c0.468-0.41,0.748-0.977,0.79-1.598
											c0.041-0.62-0.161-1.22-0.571-1.688c-0.41-0.468-0.977-0.749-1.597-0.79c-0.62-0.042-1.22,0.161-1.688,0.571
											c-0.468,0.409-0.749,0.977-0.79,1.598L590.539,304.615z"/>
									</g>
									<path style="fill:#FEA26F;" d="M599.458,299.128c0.048,0.115,1.303,1.703,1.409,1.646c0.441-0.239,1.553-0.676,2.257,0.492
										c0.711,1.181-0.821,2.369-1.474,2.767c-0.188,0.115-0.326,0.304-0.388,0.528c-0.191,0.688,0.025,1.793-0.258,4.06
										c-0.246,1.974,0.745,7.108,0.745,7.108s-16.276,12.484-9.458-1.439l1.988-7.437c0,0-4.647,0.3-3.912-5.791
										c0.343-5.141,3.052-5.838,3.889-6.104C594.963,294.732,597.075,293.394,599.458,299.128z"/>
									<path style="fill:#FA7C4E;" d="M594.021,306.815l1.909-0.056C595.93,306.759,594.701,308.91,594.021,306.815z"/>
									<path style="fill:#842B28;" d="M592.716,294.972c0,0,2.298,4.57,6.585,2.963
										C599.301,297.934,597.464,287.638,592.716,294.972z"/>
									<g>
										<path style="fill:#FFFFFF;" d="M602.226,308.132c-0.062,0-0.125-0.002-0.187-0.006c-0.745-0.05-1.426-0.386-1.917-0.948
											c-0.492-0.562-0.735-1.281-0.685-2.026l0,0c0.049-0.745,0.386-1.425,0.948-1.917c0.562-0.491,1.285-0.733,2.025-0.685
											c1.537,0.103,2.704,1.436,2.602,2.973C604.914,306.998,603.683,308.132,602.226,308.132z M599.669,305.168l0.232,0.016
											c-0.041,0.621,0.161,1.22,0.571,1.688c0.41,0.468,0.977,0.749,1.598,0.79c1.289,0.089,2.393-0.887,2.478-2.168
											c0.085-1.281-0.888-2.393-2.169-2.478c-0.625-0.045-1.22,0.161-1.688,0.571c-0.468,0.409-0.748,0.977-0.79,1.597
											L599.669,305.168z"/>
									</g>
								</g>
								<g>
									<path style="fill:#F7563C;" d="M583.776,322.61c4.1-6.272,6.566-7.39,8.04-8.218l0.128,0.2
										c1.4,2.182,3.988,2.283,6.545,1.853c1.807-0.304,3.188-1.461,3.205-1.157c2.405,0.315,6.691,3.273,6.691,3.273
										c1.927,16.124,4.025,18.346,3.365,22.161c-17.033-0.031-30.067-0.9-30.067-0.9
										C581.339,332.411,579.108,329.752,583.776,322.61z"/>
								</g>
								<g>
									<path style="fill:#842B28;" d="M595.638,336.932c2.429-2.384,4.631-5.047,6.256-8.048
										c2.043-3.774,2.478-7.715,3.673-11.763c0.025-0.086,0.045-0.17,0.062-0.254c1.517,0.839,2.756,1.692,2.756,1.692
										c2.081,16.975,4.025,18.346,3.365,22.161c-7.772-0.014-14.706-0.203-19.954-0.404
										C593.131,339.252,594.418,338.13,595.638,336.932z"/>
								</g>
							</g>
							<g>
								<g>
									<path style="fill:#FEA26F;" d="M570.527,322.518c0,0,17.058,25.264,21.807,23.165c0,0,22.951-21.041,14.871-29.999
										c-4.799-5.32-8.385,5.578-15.904,13.947c-0.23,0.256-15.856-10.484-15.856-10.484s-5.004-10.378-5.583-9.959
										c-0.839,0.608,0.995,5.156,0.995,5.156s-0.264,0.424-0.827,0.55c-0.563,0.126-0.919,0.413-1.229,1.067
										c-0.31,0.654-1.08,0.918-1.276,1.296C567.328,317.636,569.284,321.174,570.527,322.518z"/>
									<path style="fill:#F7563C;" d="M604.849,313.882c3.659,0.291,7.506,5.776,5.602,12.399
										c-1.506,5.24-2.581,7.168-2.581,7.168s-15.306-7.106-14.56-8.731C595.278,320.432,600.065,313.501,604.849,313.882z"/>
								</g>
							</g>
							<polygon style="fill:#FFB619;" points="612.133,447.474 622.646,445.665 622.697,440.217 611.312,443.137 							"/>
						</g>
					</g>
				</g>
			</g>
		</g>
	</g>
	<path style="fill:#FFB619;" d="M235.107,251.564c1.517,0.575,3.127,3.196,3.231,4.815c0.252,3.889,0.619,12.055-0.167,18.573
		c-1.072,8.885-29.72,6.741-31.098,6.741c-1.379,0-4.749,8.003-9.345,10.053c-4.596,2.05,3.196-6.682,3.36-10.665
		c0,0-11.216,0.613-15.407-1.992c-4.191-2.604-4.927-19.22-2.639-26.503C185.063,246.151,222.644,246.838,235.107,251.564z"/>
	<path style="fill:#FFB619;" d="M153.068,190.061c1.517,0.575,3.127,3.196,3.231,4.815c0.252,3.889,0.619,12.055-0.168,18.573
		c-1.072,8.885-29.72,6.74-31.098,6.74c-1.379,0-4.749,8.003-9.345,10.053c-4.596,2.05,3.196-6.682,3.36-10.665
		c0,0-11.216,0.613-15.407-1.992c-4.191-2.604-4.928-19.22-2.639-26.503C103.025,184.648,140.605,185.335,153.068,190.061z"/>
	<g>
		<path style="fill:#EDDBBB;" d="M348.961,447.935c0.183,9.922,19.559,17.61,43.276,17.172c23.718-0.438,42.796-8.836,42.613-18.758
			c-0.183-9.922-19.559-17.61-43.276-17.172C367.856,429.615,348.778,438.013,348.961,447.935z"/>
		<g>
			<g>
				<polygon style="fill:#FEA26F;" points="375.215,440.184 376.263,434.025 382.586,434.254 382.741,440.184 379.77,445.338 
					374.423,441.215 				"/>
				<path style="fill:#FA7C4E;" d="M380.038,434.475l-0.701,8.691c0,0,1.643-0.932,3.562-2.653l-0.092-5.928L380.038,434.475z"/>
				<path style="fill:#9F411C;" d="M374.833,440.112c0,0,1.857-0.036,4.019,1.603c1.286,0.976,3.23-1.037,3.826-1.557
					c0.121-0.106,0.286-0.011,0.306,0.177l0.747,6.806h-18.815c-0.219,0-0.396-0.231-0.396-0.515v-1.432
					c0-0.222,0.109-0.419,0.271-0.489L374.833,440.112z"/>
				<g>
					
						<rect x="375.123" y="439.596" transform="matrix(0.5008 -0.8656 0.8656 0.5008 -194.6657 545.165)" style="fill:#FFFFFF;" width="0.335" height="3.499"/>
				</g>
				<g>
					
						<rect x="373.803" y="440.271" transform="matrix(0.5007 -0.8656 0.8656 0.5007 -195.9008 544.4083)" style="fill:#FFFFFF;" width="0.335" height="3.5"/>
				</g>
			</g>
			<g>
				<polygon style="fill:#FEA26F;" points="407.399,439.682 405.184,433.478 411.609,432.481 413.396,440.184 410.425,445.338 
					405.077,441.215 				"/>
				<path style="fill:#FA7C4E;" d="M409.282,433.035l2.326,9.859c0,0-0.135-1.065,1.784-2.786l-1.341-6.962L409.282,433.035z"/>
				<path style="fill:#9F411C;" d="M405.488,440.112c0,0,1.857-0.036,4.018,1.603c1.287,0.976,3.23-1.037,3.826-1.557
					c0.121-0.106,0.286-0.011,0.306,0.177l0.747,6.806h-18.814c-0.219,0-0.396-0.231-0.396-0.515v-1.432
					c0-0.222,0.109-0.419,0.271-0.489L405.488,440.112z"/>
				<g>
					
						<rect x="405.352" y="439.731" transform="matrix(0.5006 -0.8657 0.8657 0.5006 -179.6617 571.5344)" style="fill:#FFFFFF;" width="0.335" height="3.499"/>
				</g>
				<g>
					
						<rect x="404.032" y="440.406" transform="matrix(0.5008 -0.8656 0.8656 0.5008 -180.9356 570.592)" style="fill:#FFFFFF;" width="0.335" height="3.499"/>
				</g>
			</g>
			<path style="fill:#3D232F;" d="M385.097,286.691c-1.422,0.451-1.659,3.422-0.942,4.94c0.183,0.477,0.469,0.888,0.889,1.145
				c0.194,0.268,0.46,0.56,0.753,0.676c0.661,0.263,1.504-0.287,2.243-0.86c0.726-0.563,2.112,0.354,2.327,0.504l0.601,5.798
				l0.937-0.332l0.049,0.095l0,0l0,0l0.049,0.096l1.674-0.902l0.013-0.043c1.231-4.047,0.815-6.073-0.051-7.233
				C395.224,288.823,394.171,286.547,385.097,286.691z M392.761,298.101l-0.363,0.196c0.258-0.262,0.538-0.389,0.732-0.45
				L392.761,298.101z"/>
			<g>
				<path style="fill:#241420;" d="M376.39,357.802c0,0-2.42,28.944-2.647,36.94c-0.227,7.997,1.378,40.214,1.378,40.214l8.13,0.294
					c0,0,8.967-56.492,18.743-75.779L376.39,357.802z"/>
				<g>
					<path style="fill:#FFFFFF;" d="M380.648,434.703l-0.335-0.013c0.012-0.317,1.23-31.717,1.23-36.79
						c0-5.093,6.608-37.239,6.889-38.605l0.328,0.067c-0.069,0.334-6.882,33.478-6.882,38.537
						C381.88,402.978,380.661,434.387,380.648,434.703z"/>
				</g>
			</g>
			<g>
				<path style="fill:#3D232F;" d="M376.369,357.802c0,0,5.595,24.127,11.277,41.196c4.592,13.794,16.983,35.699,16.983,35.699
					l8.087-0.332l-8.823-34.957c-0.522-2.059-0.851-4.163-0.985-6.286c-0.504-8.015,1.143-24.212,1.832-34.59L376.369,357.802z"/>
				<g>
					<g>
						<path style="fill:#FFFFFF;" d="M408.457,434.634c-0.105-0.353-10.56-35.376-12.903-40.173
							c-2.369-4.85,0.143-34.945,0.251-36.224l0.334,0.028c-0.026,0.312-2.613,31.282-0.284,36.049
							c2.355,4.821,12.817,39.871,12.923,40.224L408.457,434.634z"/>
					</g>
					<g>
						
							<rect x="390.537" y="356.558" transform="matrix(0.7952 -0.6064 0.6064 0.7952 -140.3983 311.3792)" style="fill:#020E2B;" width="0.336" height="13.899"/>
					</g>
				</g>
			</g>
			<g>
				<path style="fill:#FEA26F;" d="M351.777,330c0,0,17.169,14.606,20.651,14.064c3.482-0.541,21.127-30.159,13.445-33.22
					c0,0-1.768-1.929-3.613-0.348c-1.846,1.582-7.352,5.392-13.757,21.558c0,0-13.364-7.402-14.363-8.217
					c0,0-3.852-5.085-3.903-4.057c-0.051,1.027,1.644,3.287,1.181,3.39c-0.462,0.103-5.752-3.647-6.215-3.287
					c-0.462,0.359,3.338,2.465,3.133,2.568c-0.205,0.103-4.006-1.797-4.212-1.387c-0.205,0.411,3.595,2.311,3.441,2.465
					c-0.154,0.154-3.801-1.695-3.903-1.387c-0.103,0.308,2.773,1.9,3.03,2.363c0,0-3.133-1.233-3.287-0.719
					C343.252,324.299,351.777,330,351.777,330z"/>
				<path style="fill:#FA7C4E;" d="M350.545,322.758l1.438,2.465c0,0-0.591-1.926-0.436-2.132L350.545,322.758z"/>
				<path style="fill:#9F411C;" d="M369.072,330.57c0,0,10.701-29.85,20.826-21.75c5.659,4.527-11.99,35.582-16.076,38.561
					l-13.396-8.824l3.661-9.758L369.072,330.57z"/>
				<path style="fill:#631F27;" d="M389.898,308.819c-2.785-2.228-5.372-0.952-8.1,0.944c-1.133,2.014-2.441,3.741-3.691,5.519
					c0.122,0.409,0.127,0.88-0.041,1.403c-1.899,5.933-2.907,12.582-5.878,18.108c-2.427,4.515-6.78,4.852-11.071,3.692
					c-0.009,0.026-0.02,0.053-0.027,0.078l12.731,8.816C377.908,344.402,395.557,313.346,389.898,308.819z"/>
			</g>
			<g>
				<path style="fill:#F5E6D9;" d="M411.678,319.25c-0.271-6.815-12.392-12.49-12.392-12.49l-3.68-1.245l-1.763-0.428l-3.686,3.564
					c-1.186,1.06-2.86,0.967-3.372-0.539l0.096-1.387l-2.233,0.882c-0.879,0.11-4.937,4.567-6.259,6.631
					c-1.431,2.234-2.254,4.818-2.382,7.487l-1.01,39.142l29.078,1.828C404.076,362.694,412.095,329.738,411.678,319.25z"/>
				<g>
					<polygon style="fill:#FFFFFF;" points="406.522,359.604 372.47,357.139 372.481,356.995 406.533,359.46 					"/>
				</g>
				<g>
					<path style="fill:#9F411C;" d="M396.759,305.332c0,0-2.229,6.339-6.646,21.49c-3.931,13.485-6.646,40.1-6.646,40.1
						l23.927,1.551c0,0,1.137-15.842,0.665-19.053c-0.472-3.212,12.337-34.572-2.217-39.916L396.759,305.332z"/>
				</g>
				<g>
					<path style="fill:#9F411C;" d="M385.227,313.318l-0.087,0.859l-7.268,52.357l-6.813,0.388c0,0,1.338-16.328,2.216-19.718
						c3.087-21.937,1.7-27.376,2.739-29.453c1.606-3.211,5.4-9.922,10.111-10.646L385.227,313.318z"/>
				</g>
			</g>
			<path style="fill:#FFFFFF;" d="M384.123,343.97c-0.071,0.551,0.016,1.018,0.196,1.043c0.18,0.024,0.383-0.403,0.454-0.954
				c0.072-0.551-0.016-1.018-0.196-1.043C384.398,342.991,384.194,343.418,384.123,343.97z"/>
			<g>
				<path style="fill:#FEA26F;" d="M393.101,299.896l0.741,5.19l-2.887,3.163c-0.951,0.85-3.731,2.665-4.246-0.106l0,0l0.456-4.716
					l4.741-4.291c0,0,0.729,0.519,0.82,0.707C392.817,300.032,393.101,299.896,393.101,299.896z"/>
				<path style="fill:#FA7C4E;" d="M391.906,299.136l-4.741,4.291c0,0-0.16,1,0.643,1.432c1.122,0.604,2.41-0.803,3.475-3.369"/>
			</g>
			<g>
				<path style="fill:#FEA26F;" d="M373.991,331.515l-1.2-3.311c0,0,2.49,2.344,2.921,3.625c0.227,0.674,0.363,1.53,0.363,1.53
					l10.042,7.211c1.329,0.813,2.095,0.939,2.537-0.698c1.345-4.978,7.183-14.903,7.262-15.026l11.173,8.669l-11.165,17.738
					c-1.271,2.196-5.463,2.217-7.273,0.472c-6.713-6.47-20.05-18.401-20.829-19.101c-0.446-0.4-1.66-1.745-1.559-1.97
					c0.231-0.514,2.706,2.14,2.644,1.965c-0.062-0.175-3.188-2.918-3.011-3.338c0.265-0.63,3.696,2.492,3.756,2.542
					c0.913,0.755-3.399-2.86-3.321-3.336s2.158,1.036,2.233,1.088c0,0,1.705,1.401,1.833,1.298s-2.779-4.075-2.265-4.152
					c0.514-0.077,2.471,2.251,3.061,2.816C371.782,330.103,374.15,331.973,373.991,331.515z"/>
				<path style="fill:#631F27;" d="M411.92,322.398l-5.496,29.02c-1.07,5.65-7.445,8.503-12.371,5.536l-7.916-4.767L411.92,322.398z
					"/>
				<path style="fill:#9F411C;" d="M398.874,316.061c0,0,3.282-9.094,9.322-5.174c6.343,4.116,6.159,20.398-7.062,39.863
					c-3,4.417-12.244,5.216-16.001,1.421l-3.938-2.252l3.545-10.856l2.305,1.327L398.874,316.061z"/>
			</g>
			<g>
				<path style="fill:#FEA26F;" d="M391.548,297.937c0.054,0.142,0.228,0.183,0.335,0.078c0.362-0.355,1.708-0.951,1.967,0.465
					c0.351,1.923-1.655,1.592-1.815,1.851c-0.324,0.525-1.364,2.289-2.915,2.973c-0.945,0.417-3.384,0.888-4.416-0.103
					c-1.032-0.991-0.44-2.828-0.087-11.831c0,0,1.425,0.317,2.213,0.474c1.206,0.24,3.397-0.365,4.141,1.822
					C391.313,294.67,391.232,297.104,391.548,297.937z"/>
			</g>
		</g>
	</g>
	<g>
		
			<ellipse transform="matrix(0.9998 -0.0185 0.0185 0.9998 -7.3029 12.3464)" style="fill:#EDDBBB;" cx="664.927" cy="401.639" rx="37.81" ry="15.817"/>
		<g>
			<g>
				<path style="fill:#FEA26F;" d="M654.395,256.323c-3.791,1.567-8.338,5.399-13.553,11.853
					c-5.215,6.454-10.497,10.421-5.55,14.051c4.948,3.63,10.95,8.067,10.95,8.067s-1.307,1.573-0.698,3.922l-0.646,0.941
					c0,0-1.404,0.269-1.426,0.874c0,0,1.337-0.045,1.738-0.09c0.401-0.045,2.541-2.824,2.541-2.824l1.025-3.294l-6.366-10.353
					l9.731-12.549L654.395,256.323z"/>
				<path style="fill:#FA7C4E;" d="M642.087,274.504c-1.235-0.029-1.983,1.369-1.314,2.413l1.638,2.554l4.844-6.247
					C645.286,274.258,643.505,274.537,642.087,274.504z"/>
			</g>
			<path style="fill:#842B28;" d="M649.804,285.319l1.134-0.725l15-0.193l-1.471,88.541h-16.404c0,0-5.152-29.946-5.572-41.951
				C641.511,302.934,649.804,285.319,649.804,285.319z"/>
			<path style="fill:#872E2E;" d="M659.876,299.572c0,0-5.361,52.035,4.652,63.196c0.036,0.04,0.071,0.075,0.106,0.113l0.984-59.204
				L659.876,299.572z"/>
			<path style="fill:#3D232F;" d="M658.895,237.094c-3.443,0-6.586,1.165-7.321,4.628c-0.735,3.462,0.769,5.446,0.468,7.496
				c-0.166,1.131-0.576,2.246-0.911,3.018c-0.21,0.485,0.139,1.028,0.665,1.028h9.008L658.895,237.094z"/>
			<path style="fill:#FFB619;" d="M657.959,252.444c0,0,1.033-1.117,3.644-1.513c2.611-0.396,3.41-0.303,3.544,0
				c0.134,0.303,1.036,2.857,1.036,2.857l6.435,1.829c0.728,0.207,1.209,0.904,1.146,1.662l-2.032,24.665h-20.794
				c0,0,2.608-4.558,1.605-8.794c-1.003-4.236-2.14-4.034-1.27-8.068c0.51-2.367,1.02-4.786,1.354-6.381
				c0.241-1.15,1.034-2.104,2.117-2.548l3.148-1.29C657.892,254.865,657.671,252.771,657.959,252.444z"/>
			<path style="fill:#FA7C4E;" d="M660.633,256.276c0,0-4.813,6.32-1.003,6.32C663.709,262.596,660.633,256.276,660.633,256.276z"/>
			<g>
				<polygon style="fill:#842B28;" points="647.662,278.866 655.329,278.866 654.928,277.476 664.021,278.417 669.66,277.476 
					669.013,278.866 676.413,278.866 674.541,284.065 650.292,284.065 				"/>
				<polygon style="fill:#872E2E;" points="655.329,278.866 657.246,284.065 656.287,284.065 651.585,278.866 				"/>
				<polygon style="fill:#872E2E;" points="669.013,278.866 666.428,284.065 669.682,284.065 672.892,278.866 				"/>
			</g>
			<path style="fill:#842B28;" d="M674.641,284.594c0,0,13.517,30.037,13.406,88.348h-14.041l-19.611-88.348H674.641z"/>
			<path style="fill:#872E2E;" d="M674.641,284.594h-8.706l0.003-0.193l-15,0.193l-1.134,0.725c0,0-0.092,0.198-0.249,0.565
				l26.864,3.349C675.341,286.151,674.641,284.594,674.641,284.594z"/>
			<g>
				<path style="fill:#FFFFFF;" d="M646.316,296.032l-0.147-0.404c5.783-2.102,6.444-10.243,6.45-10.325l0.429,0.032
					C653.041,285.42,652.357,293.836,646.316,296.032z"/>
			</g>
			<g>
				
					<rect x="659.053" y="284.21" transform="matrix(1 -0.0014 0.0014 1 -0.399 0.8921)" style="fill:#FFFFFF;" width="0.43" height="22.406"/>
			</g>
			<g>
				
					<rect x="658.034" y="285.217" transform="matrix(0.9903 -0.1392 0.1392 0.9903 -34.2902 94.4492)" style="fill:#FFFFFF;" width="0.429" height="14.426"/>
			</g>
			<g>
				<path style="fill:#FFFFFF;" d="M651.326,375.015c-3.025-55.934,2.799-90.119,2.857-90.458l0.424,0.074
					c-0.06,0.338-5.874,34.481-2.852,90.361L651.326,375.015z"/>
			</g>
			<g>
				<path style="fill:#FFFFFF;" d="M683.823,374.013c-8.195-58.398-14.951-88.814-15.018-89.115l0.419-0.094
					c0.068,0.301,6.828,30.733,15.025,89.149L683.823,374.013z"/>
			</g>
			<g>
				<rect x="649.804" y="283.1" style="fill:#FFFFFF;" width="25.272" height="2.22"/>
				<path style="fill:#F1C6BE;" d="M662.217,285.319h-5.928c-0.464,0-0.841-0.376-0.841-0.841v-0.538
					c0-0.464,0.376-0.841,0.841-0.841h5.929c0.464,0,0.841,0.376,0.841,0.841v0.538
					C663.058,284.943,662.682,285.319,662.217,285.319z"/>
			</g>
			<path style="fill:#872E2E;" d="M674.006,372.942h14.041c0.002-1.151-0.003-2.286-0.011-3.415l-14.185,2.72L674.006,372.942z"/>
			<path style="fill:#872E2E;" d="M647.945,372.247L647.945,372.247c0.076,0.449,0.118,0.695,0.118,0.695h16.404l0.061-3.661
				L647.945,372.247z"/>
			<path style="fill:#FEA26F;" d="M650.27,375.003l2.026,14.715c0.151,1.093-0.078,2.204-0.647,3.148l-3.704,6.139
				c0,0-5.303,2.126-5.534,3.832h6.775c2.067,0,3.976-1.113,5.002-2.917l2.701-4.747v7.664h1.553c0,0,2.191-7.732,1.255-10.353
				c-0.5-1.4-1.209-2.57-1.762-3.356c-0.541-0.77-0.78-1.711-0.682-2.648l1.196-11.476H650.27z"/>
			<path style="fill:#3D232F;" d="M654.188,399.919l2.701-4.747v7.664h1.553c0,0,2.191-7.732,1.255-10.353
				c-0.212-0.595-0.463-1.145-0.723-1.645c-1.363,0.219-3.92,1.145-5.9,4.88c-0.509,0.96-1.635,1.411-2.663,1.07l-0.94-0.312
				l-1.526,2.529c0,0-5.303,2.126-5.534,3.832h6.775C651.253,402.836,653.162,401.723,654.188,399.919z"/>
			<path style="fill:#FEA26F;" d="M677.973,374.466l4.078,16.061c0.117,0.46,0.04,0.944-0.208,1.347
				c-0.754,1.224-2.12,4.567-0.215,10.963h1.694v-5.999l1.749,3.363c0.843,1.621,2.511,2.637,4.331,2.637h7.137
				c-0.702-1.779-5.46-3.63-5.46-3.63l-3.975-7.689c-0.464-0.896-0.705-1.892-0.705-2.903v-14.149H677.973z"/>
			<path style="fill:#3D232F;" d="M691.078,399.206l-1.205-2.331h-3.275c0,0-2.489-3.77-5.051-4.455
				c-0.742,1.541-1.592,4.8,0.081,10.416h1.694v-5.999l1.749,3.363c0.843,1.621,2.511,2.637,4.331,2.637c0,0,4.841,0,7.137,0
				C695.837,401.057,691.078,399.206,691.078,399.206z"/>
			<g>
				<path style="fill:#FFB619;" d="M674.689,346.205l-31.146-2.995c-0.832-0.08-1.442-0.823-1.362-1.659L644.135,321l34.159,3.284
					l-1.955,20.551C676.259,345.672,675.52,346.285,674.689,346.205z"/>
				<g>
					<polygon style="fill:#FFFFFF;" points="646.036,321.171 660.089,313.247 659.949,314.72 651.803,321.737 					"/>
					<polygon style="fill:#FFFFFF;" points="676.394,324.09 664.089,313.632 663.949,315.104 670.625,323.547 					"/>
				</g>
				<g>
					<g>
						<g>
							<path style="fill:#875930;" d="M648.393,341.552l-1.974-2.594l0.012-0.07l1.957-11.487l2.679,0.258l-0.245,11.723
								L648.393,341.552z M646.765,338.873l1.675,2.199l2.057-1.84l0.236-11.276l-2.074-0.199L646.765,338.873z"/>
						</g>
						<polygon style="fill:#FFFFFF;" points="651.344,336.798 646.392,336.322 646.977,333.238 651.352,333.659 						"/>
					</g>
					<g>
						<g>
							<path style="fill:#875930;" d="M670.237,343.652l-1.974-2.594l0.012-0.07l1.958-11.487l2.679,0.258l-0.245,11.723
								L670.237,343.652z M668.609,340.973l1.675,2.199l2.058-1.84l0.236-11.276l-2.074-0.199L668.609,340.973z"/>
						</g>
						<polygon style="fill:#FFFFFF;" points="673.188,338.899 668.237,338.422 668.821,335.338 673.196,335.759 						"/>
					</g>
				</g>
				<g>
					<polygon style="fill:#F1C6BE;" points="653.446,320.322 648.427,319.823 646.036,321.171 651.803,321.737 					"/>
					<polygon style="fill:#F1C6BE;" points="670.625,323.547 676.394,324.09 674.415,322.408 669.323,321.901 					"/>
				</g>
				<path style="fill:#FFFFFF;" d="M644.183,321.005c0.564,1.278,0.91,2.978,0.966,4.744c0.046,1.471,1.139,2.691,2.596,2.831
					l25.566,2.458c1.46,0.14,2.765-0.855,3.085-2.294c0.38-1.711,1.03-3.283,1.848-4.464L644.183,321.005z"/>
			</g>
			<g>
				<path style="fill:#FEA26F;" d="M672.618,255.617c0,0,5.533,2.183,6.826,6.979c1.293,4.796-1.036,12.464-3.967,22.255
					c0,0-0.847,6.718-2.585,10.979c-1.484,3.637-6.273,12.609-7.643,15.158c-0.244,0.454-0.393,0.954-0.438,1.468l-0.232,2.639
					c-0.057,0.651-0.6,1.151-1.25,1.151h-2.67c-0.575,0-1.066-0.417-1.161-0.987l-0.23-1.366l-0.826-0.269c0,0,0.52-2.79,3.395-3.16
					l9.405-41.055C671.242,269.409,668.256,263.044,672.618,255.617z"/>
				<path style="fill:#FA7C4E;" d="M672.668,263.52c0,0-0.914,1.863-2.25,2.842c0.285,1.893,0.824,3.047,0.824,3.047l-0.258,1.124
					L672.668,263.52z"/>
				<line style="fill:#FA7C4E;" x1="671.242" y1="269.409" x2="672.892" y2="262.596"/>
			</g>
			<path style="fill:#FEA26F;" d="M658.962,238.976c0,0-1.516,5.378,3.989,6.589l1.582,6.23c0,0-2.34,2.241-5.861,1.188
				l-0.513-2.129c0,0-2.541,0.448-3.455-2.017c-0.914-2.465,0.245-3.922,0.245-3.922S654.438,240.321,658.962,238.976z"/>
			<path style="fill:#3D232F;" d="M662.951,245.565l-0.607,7.283c-0.033,0.398,0.279,0.74,0.677,0.74h6.427
				c0.506,0,0.847-0.52,0.647-0.987c-0.814-1.897-2.495-6.064-2.596-8.335c-0.134-3.003,0.579-7.171-3.477-7.171
				c-4.056,0-5.126,0-5.126,0S656.131,244.354,662.951,245.565z"/>
			<path style="fill:#FEA26F;" d="M664.613,246.677c-0.531,0.736-1.404,1.01-1.95,0.612c-0.545-0.398-0.557-1.317-0.026-2.054
				c0.531-0.736,1.404-1.01,1.95-0.613C665.133,245.021,665.144,245.941,664.613,246.677z"/>
			<path style="fill:#FA7C4E;" d="M658.159,250.853c1.621-0.174,2.925-1.384,3.326-2.325c0.368,1.261-0.398,3.718-2.898,4.103
				L658.159,250.853z"/>
			<path style="fill:#FFFFFF;" d="M664.435,248.268c0,0.692-0.342,1.252-0.764,1.252c-0.422,0-0.764-0.561-0.764-1.252
				c0-0.691,0.342-1.252,0.764-1.252C664.093,247.016,664.435,247.576,664.435,248.268z"/>
			<polygon style="fill:#842B28;" points="665.113,376.684 647.662,376.684 646.993,372.247 665.113,372.247 			"/>
			<polygon style="fill:#842B28;" points="688.627,376.684 674.033,376.684 673.365,372.247 688.849,372.247 			"/>
		</g>
	</g>
	<g>
		
			<ellipse transform="matrix(0.9998 -0.0185 0.0185 0.9998 -6.6572 5.4709)" style="fill:#EDDBBB;" cx="292.932" cy="363.237" rx="42.952" ry="17.968"/>
		<g>
			<g>
				<g>
					<g>
						<path style="fill:#C34432;" d="M308.214,348.943l1.86,12.598c0,0,2.634-2.67,3.307-2.68c1.224-0.019,2.928-2.219,2.928-2.219
							l0.202-7.123L308.214,348.943z"/>
						<polygon style="fill:#9C1C1C;" points="312.527,346.824 313.561,360.373 316.585,360.637 316.632,347.12 						"/>
						<path style="fill:#001A2D;" d="M317.337,359.499l1.529,3.593c0.367,0.652,0.107,1.395-0.635,1.804
							c-1.203,0.664-6.582,1.009-7.757,0.404c-0.788-0.406-1.526-0.335-1.391-1.031l0.437-3.398c0.016-0.08,1.472-2.58,4.094-2.548
							C315.685,358.348,317.298,359.43,317.337,359.499z"/>
						<g>
							<g>
								<path style="fill:#FFFFFF;" d="M311.429,360.168c1.715-1.553,4.041-0.366,4.064-0.353l0.143-0.275
									c-0.024-0.013-2.539-1.301-4.416,0.398L311.429,360.168z"/>
							</g>
							<g>
								<path style="fill:#FFFFFF;" d="M311.519,361.562c1.715-1.552,4.041-0.366,4.064-0.353l0.143-0.275
									c-0.025-0.013-2.539-1.301-4.416,0.398L311.519,361.562z"/>
							</g>
						</g>
					</g>
					<path style="fill:#FFB619;" d="M270.491,270.656c2.71-12.549,7.231-18.945,7.231-18.945l25.224,1.434l0.249-0.037
						c0,0,3.8,9.305,5.538,16.763c2.919,12.531,8.482,81.516,8.482,81.516c-6.747,0.795-9.169,1.065-9.169,1.065
						s-12.481-43.815-18.499-70.783c-0.393-1.762-1.599-1.641-1.679,0.155c-0.402,9.037-6.743,69.896-6.743,69.896l-8.139-0.609
						c-0.066,0.363-1.108-17.552-3.28-40.909C268.252,294.577,268.106,282.423,270.491,270.656z"/>
					<g>
						<g>
							<path style="fill:#C34432;" d="M281.212,349.674l-0.858,11.019c0,0-1.999,1.093-4.499,0.203
								c-2.303-0.82-3.348-3.565-3.348-3.565l-0.19-8.241L281.212,349.674z"/>
							<polygon style="fill:#9C1C1C;" points="276.891,349.746 276.368,362.407 280.306,360.59 280.99,350.51 							"/>
							<path style="fill:#001A2D;" d="M272.484,357.01l-4.745,2.092c-1.201,0.529-1.99,1.669-1.95,2.921
								c0.01,0.321,0.073,0.547,0.214,0.555c0,0,14.21,0.632,14.241,0.429c0.19-1.255,0.371-1.803,0.198-2.964
								c-0.025-0.166-2.816,0.691-3.914,0.257C275.792,360.01,272.484,357.01,272.484,357.01z"/>
							<g>
								<g>
									
										<rect x="272.53" y="356.951" transform="matrix(0.7206 -0.6933 0.6933 0.7206 -172.4986 289.2709)" style="fill:#FFFFFF;" width="0.301" height="3.446"/>
								</g>
								<g>
									
										<rect x="271.275" y="357.492" transform="matrix(0.7204 -0.6935 0.6935 0.7204 -173.2409 288.6539)" style="fill:#FFFFFF;" width="0.301" height="3.446"/>
								</g>
							</g>
						</g>
						<g>
							<path style="fill:#F58616;" d="M274.98,348.524l0.292-0.041c-0.103-0.74-10.171-74.143,1.715-89.507l-0.234-0.181
								c-5.024,6.495-6.85,23.57-5.426,50.753C272.387,329.777,274.954,348.339,274.98,348.524z"/>
						</g>
						<polygon style="fill:#F58616;" points="271.287,352.89 282.159,352.68 282.531,349.225 271.064,347.745 						"/>
					</g>
					<g>
						<g>
							<path style="fill:#F58616;" d="M312.38,348.241l0.295-0.003c-0.007-0.645-0.806-64.804-12.593-88.992l-0.265,0.129
								C311.574,283.504,312.373,347.597,312.38,348.241z"/>
						</g>
					</g>
					<g>
						<g>
							<path style="fill:#C34432;" d="M258.1,215.864c0.798,3.61,2.087,7.213,2.087,7.213l1.491,13.147l7.583-1.232l-2.92-13.218
								c-0.482-5.35-0.548-6.872-0.987-7.686c0,0-0.27-0.851-0.481-0.831c-0.747,0.07-0.302,2.989-0.427,2.818
								c-0.126-0.171-2.67-4.986-3.308-4.78c-0.638,0.207,1.09,3.144,0.771,3.247c-0.319,0.103-1.558-3.063-2.173-3.005
								c-0.616,0.058,0.771,3.247,0.475,3.202c-0.297-0.045-1.261-3.018-1.728-2.937c-0.467,0.081,0.771,3.247,0.6,3.373
								c-0.171,0.126-1.135-2.847-1.728-2.937C256.908,212.17,257.897,214.943,258.1,215.864z"/>
							<path style="fill:#842B28;" d="M262.825,247.92c-2.665-11.126-2.299-13.723-2.299-13.723s8.047-3.48,8.217-3.17
								c1.085,1.977,0.627,1.946,1.974,6.514c0,0,7.299-17.546,13.545-14.354c10.387,2.295-8.549,23.932-12.68,27.522
								C267.581,254.184,263.88,252.323,262.825,247.92z"/>
							<g>
								<path style="fill:#FCF4CF;" d="M282.299,237.275c-0.429-0.593-0.566-1.347-0.903-1.997c-0.337-0.65-1.04-1.238-1.743-1.029
									c-0.494,0.147-0.799,0.63-1.032,1.089c-1.3,2.569-1.713,5.576-1.154,8.4"/>
							</g>
						</g>
						<g>
							<path style="fill:#3D232F;" d="M282.346,222.814c-1.297-4.067,2.098-12.57,2.331-17.213c0.128-2.552,2.721-4.914,5.751-4.965
								c10.265-0.17,10.516,3.778,9.9,9.1c-0.13,1.12,13.474,20.861,13.474,20.861s-18.258,5.089-22.364,6.163
								C285.658,238.27,287.978,222.379,282.346,222.814z"/>
							<path style="fill:#FFFFFF;" d="M284.15,213.771c0.07-1.393,1.256-2.466,2.648-2.396c1.393,0.07,2.466,1.256,2.396,2.648
								c-0.07,1.393-1.255,2.466-2.648,2.396C285.153,216.35,284.08,215.164,284.15,213.771z"/>
							<path style="fill:#C34432;" d="M294.102,208.14c0.049,0.113,0.065,1.733,0.168,1.675c0.431-0.243,1.52-0.692,2.233,0.448
								c0.721,1.152-0.771,2.349-1.408,2.752c-0.184,0.116-0.316,0.305-0.374,0.527c-0.177,0.681,0.054,1.768-0.188,4.007
								c-0.211,1.951,0.85,6.996,0.85,6.996s-15.843,12.573-9.348-1.265l1.839-7.365c0,0-4.577,0.371-3.951-5.646
								c0.254-5.074,2.913-5.806,3.735-6.081C288.351,203.955,291.659,202.526,294.102,208.14z"/>
							<path style="fill:#FA7C4E;" d="M287.619,215.883l1.882-0.086C289.5,215.797,288.323,217.937,287.619,215.883z"/>
							<path style="fill:#FA7C4E;" d="M296.039,211.154c0,0-0.645-1.701-1.681,0.483"/>
							<path style="fill:#3D232F;" d="M285.742,204.303c0,0,5.251,6.934,8.454,6.597C294.195,210.9,295.792,199.281,285.742,204.303
								z"/>
							<path style="fill:#FFFFFF;" d="M293.161,214.167c0.07-1.393,1.255-2.466,2.648-2.396c1.393,0.07,2.466,1.256,2.396,2.649
								c-0.07,1.393-1.255,2.465-2.648,2.396C294.164,216.746,293.091,215.56,293.161,214.167z"/>
						</g>
						<g>
							<path style="fill:#842B28;" d="M276.426,232.846c3.94-6.25,6.55-8.454,7.989-9.295l2.32-3.174c0,0-5.51,17.834,8.105,0.853
								c0.559-0.697,2.16,3.165,2.205,3.814c2.376,0.271,4.926,2.183,4.926,2.183c6.444,17.808-1.075,25.93-1.664,29.701
								c-14.671,6.906-22.525-2.589-22.525-2.589C277.323,247.041,271.94,239.964,276.426,232.846z"/>
							<g>
								<g>
									<path style="fill:#D36161;" d="M277.333,254.119l0.447-0.058c-0.273-2.127-0.776-4.051-1.262-5.913
										c-1.673-6.404-3.118-11.935,5.471-22.325l-0.347-0.287c-8.736,10.567-7.264,16.202-5.56,22.726
										C276.565,250.11,277.065,252.021,277.333,254.119z"/>
								</g>
							</g>
						</g>
					</g>
					<g>
						<g>
							<path style="fill:#C34432;" d="M317.756,280.846c-0.674-3.635-2.627-7.027-2.627-7.027l-3.272-15.116l-9.36,0.964
								l6.988,16.019c-0.192,2.05,0.772,8.046,1.413,7.535c0.166-0.132,0.404-2.976,0.524-2.801c0.12,0.175,1.624,5.187,2.269,5.002
								c0.645-0.185-0.158-3.234,0.164-3.326c0.323-0.092,0.628,3.169,1.246,3.132c0.617-0.037,0.164-3.326,0.459-3.271
								s0.333,3.114,0.803,3.049c0.47-0.065,0.164-3.326,0.339-3.446c0.175-0.12,0.214,2.939,0.803,3.049
								C317.947,284.69,317.928,281.772,317.756,280.846z"/>
							<path style="fill:#842B28;" d="M297.388,226.719c2.883-2.189,5.033-0.728,7.982,5.393c9.333,19.372,9.995,29.84,9.995,29.84
								s-11.532,2.18-11.734,1.89c-4.363-6.245-6.635-16.312-7.925-22.003C294.842,238.03,293.619,229.581,297.388,226.719z"/>
							<g>
								<path style="fill:#D36161;" d="M303.446,263.971l0.37-0.258c-4.322-6.186-6.547-15.999-7.876-21.862l-0.014-0.062
									c-0.441-1.949-2.44-11.824,1.599-14.89l-0.272-0.359c-4.152,3.153-2.401,12.545-1.765,15.349l0.014,0.062
									C296.837,247.846,299.074,257.712,303.446,263.971z"/>
							</g>
						</g>
					</g>
					<polygon style="fill:#F58616;" points="307.767,354.265 318.104,352.31 318.064,346.938 307.04,349.579 					"/>
				</g>
			</g>
		</g>
	</g>
	<g>
		<path style="fill:#EDDBBB;" d="M427.636,396.021c0.183,9.922,19.559,17.61,43.276,17.172c23.717-0.438,42.796-8.837,42.613-18.758
			c-0.183-9.922-19.559-17.61-43.276-17.172C446.531,377.7,427.453,386.098,427.636,396.021z"/>
		<g>
			<g>
				<g>
					<g>
						<path style="fill:#C34432;" d="M450.672,380.462l-1.697,5.261c0,0,1.541,6.687,2.649,4.423c1.109-2.264,3.46-3.065,3.46-3.065
							l3.295-6.37L450.672,380.462z"/>
						<polygon style="fill:#9C1C1C;" points="458.229,381.012 451.532,380.936 452.189,388.167 455.509,386.64 						"/>
					</g>
					<g>
						<g>
							<path style="fill:#D16526;" d="M455.642,386.64l7.936,5.096c0.355,0.228,0.168,0.712-0.277,0.712
								c-3.646,0.006-13.469-0.032-16.052-0.049c-0.313-0.002-0.531-0.261-0.434-0.515c0.535-1.406,2-5.309,2.165-6.385
								c0.029-0.189,2.269,3.021,3.342,2.669C453.245,387.864,455.433,386.454,455.642,386.64z"/>
							<path style="fill:#842B28;" d="M451.377,392.389c-1.821-0.022-3.344-0.042-4.155-0.053c-0.313-0.005-0.529-0.265-0.43-0.519
								c0.273-0.701,0.784-2.024,1.247-3.306L451.377,392.389z"/>
							<path style="fill:#842B28;" d="M457.844,392.462c2.178,0.023,4.171,0.042,5.429,0.049c0.445,0.003,0.636-0.479,0.282-0.71
								l-3.386-2.212L457.844,392.462z"/>
							<g>
								<path style="fill:#842B28;" d="M455.242,390.271c-0.302,0-0.604-0.098-0.854-0.292c-0.362-0.28-0.56-0.703-0.543-1.161
									c0.018-0.458,0.247-0.864,0.63-1.116l1.335-0.876c0.155-0.103,0.366-0.06,0.469,0.097c0.102,0.156,0.059,0.366-0.097,0.469
									l-1.335,0.876c-0.198,0.13-0.316,0.339-0.325,0.575c-0.009,0.236,0.093,0.454,0.28,0.599
									c0.244,0.188,0.581,0.202,0.837,0.032l1.946-1.277c0.155-0.102,0.366-0.06,0.469,0.097c0.103,0.157,0.059,0.366-0.097,0.469
									l-1.946,1.277C455.776,390.195,455.509,390.271,455.242,390.271z"/>
							</g>
						</g>
						<path style="fill:#631F27;" d="M462.699,395.227h-14.891c-0.668,0-1.21-0.542-1.21-1.21v-1.076
							c0-0.331,0.268-0.599,0.599-0.599h16.113c0.331,0,0.599,0.268,0.599,0.599v1.076
							C463.909,394.686,463.368,395.227,462.699,395.227z"/>
					</g>
				</g>
				<g>
					<path style="fill:#C34432;" d="M480.541,380.462l-0.17,5.261c0,0,1.541,6.687,2.649,4.423c1.109-2.264,3.46-3.065,3.46-3.065
						l1.697-6.619H480.541z"/>
					<polygon style="fill:#9C1C1C;" points="487.952,381.012 483.212,381.012 483.719,388.167 487.039,386.64 					"/>
					<g>
						<path style="fill:#D16526;" d="M487.039,386.64l7.936,5.096c0.355,0.228,0.168,0.712-0.277,0.712
							c-3.646,0.006-13.469-0.032-16.052-0.049c-0.313-0.002-0.531-0.261-0.434-0.515c0.535-1.406,2-5.309,2.165-6.385
							c0.029-0.189,2.269,3.021,3.342,2.669C484.642,387.864,486.83,386.454,487.039,386.64z"/>
						<path style="fill:#631F27;" d="M493.927,395.227h-14.891c-0.668,0-1.21-0.542-1.21-1.21v-1.076
							c0-0.331,0.268-0.599,0.599-0.599h16.113c0.331,0,0.599,0.268,0.599,0.599v1.076
							C495.137,394.686,494.595,395.227,493.927,395.227z"/>
						<path style="fill:#842B28;" d="M482.774,392.389c-1.821-0.022-3.344-0.042-4.155-0.053c-0.313-0.005-0.529-0.265-0.43-0.519
							c0.273-0.701,0.784-2.024,1.247-3.306L482.774,392.389z"/>
						<path style="fill:#842B28;" d="M489.241,392.462c2.178,0.023,4.171,0.042,5.429,0.049c0.445,0.003,0.636-0.479,0.283-0.71
							l-3.386-2.212L489.241,392.462z"/>
						<g>
							<path style="fill:#842B28;" d="M486.639,390.271c-0.302,0-0.604-0.098-0.855-0.292c-0.362-0.28-0.56-0.703-0.543-1.161
								c0.018-0.458,0.247-0.864,0.63-1.116l1.335-0.876c0.155-0.103,0.366-0.06,0.469,0.097c0.103,0.156,0.059,0.366-0.097,0.469
								l-1.335,0.876c-0.198,0.13-0.316,0.339-0.325,0.575c-0.009,0.236,0.093,0.454,0.28,0.599
								c0.244,0.188,0.581,0.202,0.837,0.032l1.946-1.277c0.155-0.102,0.366-0.06,0.469,0.097c0.102,0.157,0.059,0.366-0.097,0.469
								l-1.946,1.277C487.173,390.195,486.906,390.271,486.639,390.271z"/>
						</g>
					</g>
				</g>
				<g>
					<g>
						<path style="fill:#F58616;" d="M476.129,309.013c0,0,6.484-16.094,10.145-22.15c1.619-2.678,4.594-13.364,4.594-8.524
							c0,0,7.158,17.946,7.154,46.458c-0.001,12.037-7.048,55.247-7.048,55.247s-9.024,0.543-10.262-1.108L476.129,309.013z"/>
						<g>
							<path style="fill:#FFFFFF;" d="M484.64,379.285l-0.39-0.022c0.027-0.475,2.72-47.579,3.055-52.613
								c0.334-5.007-4.866-30.073-4.918-30.326l0.384-0.079c0.215,1.034,5.263,25.372,4.925,30.432
								C487.359,331.708,484.667,378.81,484.64,379.285z"/>
						</g>
						<polygon style="fill:#F58616;" points="492.111,380.971 479.693,380.971 479.664,376.729 492.082,376.729 						"/>
					</g>
					<g>
						<g>
							<path style="fill:#FFB619;" d="M490.868,278.338c-1.363-5.705-13.004-1.106-17.391,2.832
								c-3.028,2.718-8.159,10.892-9.843,17.48c-1.953,7.641-1.803,20.773-3.159,28.929c-0.299,1.799-1.657,8.757-2.459,12.362
								c-2.634,11.832-6.423,24.756-7.344,38.654c2.408,0.58,8.775,2.186,9.504,0.849c16.462-30.209,22.046-55.411,25.557-63.546
								c0.404-0.935,0.719-1.904,0.945-2.896L490.868,278.338z"/>
							<g>
								<path style="fill:#FFFFFF;" d="M454.772,379.918l-0.385-0.07c0.12-0.656,11.969-65.721,14.487-76.129
									c2.518-10.41,7.024-23.983,7.069-24.118l0.372,0.123c-0.046,0.136-4.547,13.694-7.061,24.088
									C466.738,314.207,454.891,379.262,454.772,379.918z"/>
							</g>
							<g>
								<path style="fill:#FFFFFF;" d="M474.834,297.029c-1.054,0-2.164-0.171-3.329-0.559l0.124-0.372
									c9.741,3.251,15.635-9.273,15.693-9.4l0.356,0.164C487.624,286.977,482.893,297.029,474.834,297.029z"/>
							</g>
						</g>
						<polygon style="fill:#F58616;" points="460.714,380.971 448.296,380.971 449.964,376.729 462.382,376.729 						"/>
					</g>
				</g>
			</g>
			<path style="fill:#9C1C1C;" d="M493.094,260.804c1.079,13.002,22.848,19.412,22.848,19.412c0.701,0.183,5.771,1.342,4.695,2.096
				c-1.076,0.754-2,0.031-2.396,0.226s6.342,4.69,5.716,5.372c-0.885,0.965-4.639-2.793-4.622-1.847
				c0.017,0.947,3.924,3.523,3.394,4.078c-0.844,0.883-4.238-3.195-4.485-2.707c-0.246,0.487,3.436,3.04,2.894,3.695
				c-0.766,0.927-4.625-3.41-4.603-2.669c0.022,0.741,2.485,2.738,2.006,3.096c-0.479,0.358-7.828-7.278-7.828-7.278
				s-22.823-2.915-25.801-22.562L493.094,260.804z"/>
			<path style="fill:#3D232F;" d="M494.676,260.804c0,0,0.461-9.93-9.764-9.928c-7.584,0.001-11.188,11.495-10.034,12.978
				c1.154,1.484,6.976,5.903,14.724-1.68"/>
			<path style="fill:#842B28;" d="M478,245.13l7.15-6.732c0.309-0.939-0.777-4.609-1.526-5.259c-2.05-1.779-3.129-3.857-5.844-3.83
				c-3.126,0.032-7.086,1.814-7.638,4.961c-0.223,1.272-0.423,8.55,6.333,9.329"/>
			<path style="fill:#C34432;" d="M475.486,238.75c-0.021,0.129-0.144,0.215-0.272,0.189c-0.536-0.108-1.75-0.466-2.201,0.902
				c-0.456,1.383,0.738,2.446,1.542,2.651c0.232,0.059,0.764,0.214,0.889,0.418c0.384,0.628,1.152,3.518,0.733,4.985
				c-1.091,3.818-3.927,5.454-3.927,5.454s12.165,4.405,11.228,0.301c-1.049-4.598-1.409-9.049-1.362-9.08
				c0.783-0.525,3.02,0.999,2.959-6.292c-0.045-5.33-3.499-6.836-4.467-6.854C479.79,231.407,476.55,232.348,475.486,238.75z"/>
			<path style="fill:#C64F40;" d="M473.542,240.367c0,0,1.193-1.611,1.792,0.981"/>
			<path style="fill:#9C1C1C;" d="M482.104,244.63c0,0-1.518,0.197-2.71-0.119C480.139,246.235,481.549,246.046,482.104,244.63z"/>
			<g>
				<path style="fill:#3D232F;" d="M484.096,252.032c0.35,0.4,0.737-1.015,0.58-1.159c2.185,3.394,6.04,8.53,6.242,11.75
					c0.248,3.949-0.05,15.716-0.05,15.716c-0.077,0.496-16.31,5.365-20.099,5.148c-1.547-6.962-1.081-28.564,0.909-30.788
					c0.427-0.477,3.324-3.289,3.548-3.581C475.226,249.117,480.138,251.921,484.096,252.032z"/>
			</g>
			<path style="fill:#842B28;" d="M477.702,237.559c3.983,0.626,5.05-4.972,5.05-4.972l2.243,3.602c0,0,0.487-5.023-2.363-4.93
				c0,0-0.646-1.893-2.969-1.838c-2.323,0.055-3.402,1.883-3.402,1.883s-2.688,3.432-1.111,7.477
				c0.02,0.052,0.042,0.105,0.064,0.158C475.214,238.939,477.969,241.749,477.702,237.559z"/>
			<g>
				<path style="fill:#842B28;" d="M473.18,231.287c0.953-0.63,1.626-1.667,1.814-2.793c0.066-0.399,0.073-0.815-0.048-1.2
					c-0.18-0.573-0.623-1.025-1.098-1.394c-0.375-0.291-0.792-0.55-1.258-0.641c-0.944-0.183-0.784,1.207-1.622,1.678
					c-2.186,1.229-1.473,2.252-0.635,3.311c0.838,1.06,2.375,1.503,3.649,1.053"/>
			</g>
			<g>
				<g>
					<path style="fill:#C34432;" d="M466.675,292.617c0,0-13.122-13.701-15.993-19.581c-1.103-2.26,0.246-4.448,2.14-6.07
						c6.064-5.191,13.848-13.621,14.677-13.386c5.187-2.18,7.224,4.02,5.378,6.256c-6.134,7.43-1.622,1.285-12.157,11.541
						c-0.006,0.006,10.966,18.222,10.966,18.222c0.701,0.395,7.026,4.377,5.658,4.881c-1.368,0.504-4.411-1.285-4.892-1.188
						l0.666,9.344C473.119,302.636,471.929,306.441,466.675,292.617z"/>
				</g>
				<g>
					<path style="fill:#9C1C1C;" d="M454.199,265.793c-0.484,0.41-0.947,0.804-1.377,1.173c-1.895,1.622-2.52,3.584-2.14,6.07
						c0.112,0.732,1.206,0.995,1.432,1.71C454.885,272.025,456.12,268.99,454.199,265.793z"/>
				</g>
			</g>
			<g>
				<path style="fill:#3D232F;" d="M472.046,265.29c0,0,7.622-9.71,2.951-14.129c-4.288-4.057-14.397,4.719-14.397,4.719
					L472.046,265.29z"/>
			</g>
		</g>
	</g>
	<path style="fill:#FFB619;" d="M337.808,252.69c-1.378,0.522-2.84,2.903-2.935,4.373c-0.229,3.533-0.562,10.95,0.152,16.87
		c0.974,8.07,26.995,6.122,28.247,6.122s4.314,7.269,8.488,9.131c4.174,1.862-2.903-6.07-3.052-9.688c0,0,10.188,0.557,13.994-1.809
		c3.807-2.365,4.476-17.458,2.397-24.072C383.263,247.773,349.129,248.398,337.808,252.69z"/>
	<path style="fill:#FFB619;" d="M237.891,170.118c-1.378,0.522-2.84,2.903-2.935,4.373c-0.229,3.533-0.562,10.95,0.152,16.87
		c0.974,8.07,26.995,6.122,28.247,6.122c1.252,0,4.314,7.269,8.488,9.131c4.174,1.862-2.903-6.07-3.052-9.688
		c0,0,10.188,0.557,13.995-1.809c3.807-2.366,4.476-17.458,2.397-24.073C283.346,165.201,249.212,165.826,237.891,170.118z"/>
	<path style="fill:#FFB619;" d="M540.656,254.971c-1.378,0.522-2.84,2.903-2.935,4.373c-0.229,3.533-0.562,10.95,0.152,16.87
		c0.974,8.07,26.995,6.122,28.247,6.122c1.252,0,4.314,7.269,8.488,9.131c4.174,1.862-2.903-6.07-3.052-9.688
		c0,0,10.188,0.557,13.995-1.809c3.807-2.365,4.476-17.458,2.397-24.072C586.11,250.054,551.976,250.679,540.656,254.971z"/>
	<path style="fill:#FFB619;" d="M599.578,214.652c-1.378,0.522-2.84,2.903-2.935,4.373c-0.229,3.533-0.562,10.95,0.152,16.87
		c0.974,8.07,26.995,6.122,28.247,6.122c1.252,0,4.313,7.269,8.488,9.131c4.174,1.862-2.903-6.07-3.052-9.688
		c0,0,10.188,0.557,13.995-1.809c3.807-2.366,4.476-17.458,2.397-24.073C645.032,209.736,610.898,210.36,599.578,214.652z"/>
	<g>
		<path style="fill:#EDDBBB;" d="M127.945,442.312c0.183,9.922,19.559,17.61,43.276,17.172c23.718-0.438,42.796-8.837,42.613-18.758
			c-0.183-9.922-19.559-17.61-43.276-17.172C146.84,423.992,127.762,432.39,127.945,442.312z"/>
		<g>
			<g>
				<g>
					<path style="fill:#FEA26F;" d="M185.453,437.205l-0.634-35.384c0,0-0.014-0.018-0.035-0.045
						c0.185-1.01,0.231-7.565,0.217-14.875h-13.676c0.982,5.105,1.699,8.616,1.699,8.616s0.483,1.949,1.795,4.189
						c-0.382,2.83-1.181,9.651-0.733,14.402c0.558,5.917,7.044,22.662,7.044,22.662s0.17,0.478,0.439,1.118
						c-0.144,0.36-0.777,2.021-0.612,3.072h2.426c0.322,0.265,0.636,0.317,0.907,0h7.967c-0.313-0.172-0.729-0.37-1.28-0.585
						C189.699,439.875,186.937,438.154,185.453,437.205z"/>
					<path style="fill:#3D232F;" d="M181.6,437.815c0,0,0.764,0.858,1.824,0.803c1.06-0.056,1.953-1.45,1.953-1.45
						s-0.39-2.176,0.112-2.287c0.502-0.112,1.841,0.502,1.283,2.232c0,0,4.073,2.622,4.909,2.789c0.701,0.14,1.677,0.594,1.942,1.23
						c0.077,0.185-0.066,0.388-0.265,0.388h-12.392c-0.132,0-0.247-0.089-0.275-0.218
						C180.562,440.722,180.354,439.103,181.6,437.815z"/>
				</g>
				<g>
					<path style="fill:#FEA26F;" d="M161.999,401.777c0.408-1.01,1.904-7.565,3.508-14.875h-13.676
						c-0.148,5.105-0.207,8.616-0.207,8.616s0.052,1.949,0.869,4.189c-1.008,2.83-3.316,9.651-3.919,14.402
						c-0.751,5.917,2.031,22.662,2.031,22.662s0.064,0.478,0.192,1.118c-0.116,0.187-0.449,0.737-0.75,1.375
						c0.69,0.32,1.08,0.985,1.172,1.697h0.713c0.263,0.265,0.565,0.317,0.907,0h7.967c-0.275-0.172-0.648-0.37-1.15-0.585
						c-1.17-0.501-3.551-2.222-4.824-3.17l7.193-35.383C162.024,401.822,162.014,401.803,161.999,401.777z"/>
					<path style="fill:#3D232F;" d="M150.693,437.815c0,0,0.764,0.858,1.824,0.803c1.06-0.056,1.953-1.45,1.953-1.45
						s-0.391-2.176,0.112-2.287c0.502-0.112,1.841,0.502,1.283,2.232c0,0,4.073,2.622,4.909,2.789
						c0.701,0.14,1.677,0.594,1.942,1.23c0.077,0.185-0.066,0.388-0.266,0.388h-12.392c-0.132,0-0.247-0.089-0.275-0.218
						C149.656,440.722,149.447,439.103,150.693,437.815z"/>
				</g>
			</g>
			<g>
				<g>
					<path style="fill:#FEA26F;" d="M221.898,303.406c0,0,1.602,1.375,1.156,2.191c-0.42,0.763-3.611,2.236-5.097,2.464
						c0.165,5.914-1.808,17.254-2.441,19.629c-0.277,1.044-1.334,2.914-2.405,4.651c-0.37,0.598-0.866,1.062-1.428,1.392
						c-0.277,0.321-0.732,0.482-1.334,0.504c-1.022,0.196-2.107,0.018-3.039-0.567c-3.227-1.035-7.757-3.352-12.367-5.994
						c1.642-1.37,6.61-5.766,7.034-9.35c1.781,1.834,3.53,3.731,5.061,5.552c1.821-4.802,6.44-16.723,9.011-19.022
						c0.361-0.428,0.736-0.79,1.018-0.893c0.817-0.299,3.347-1.75,4.874-2.12c1.522-0.375,3.615-0.397,3.53-0.223
						C225.227,302.121,221.898,303.406,221.898,303.406z"/>
					<path style="fill:#FA7C4E;" d="M206.911,323.823c-0.118,1.031-0.361,2.026-0.565,3.014c-0.053,0.242-0.106,0.499-0.117,0.714
						c-0.011,0.248-0.002,0.502-0.008,0.757c-0.002,0.51-0.009,1.023-0.054,1.541c-0.14-0.501-0.23-1.009-0.293-1.521
						c-0.036-0.256-0.053-0.513-0.067-0.777c0.001-0.298,0.055-0.545,0.102-0.804c0.11-0.509,0.248-1.004,0.416-1.491
						C206.49,324.768,206.677,324.288,206.911,323.823z"/>
				</g>
				<g>
					<g>
						<path style="fill:#FEA26F;" d="M169.313,303.512c2.448,1.04,4.939,1.968,7.545,2.613c1.379,0.341,2.766,0.628,4.161,0.848
							c2.267-0.162,4.529-0.608,6.902-1.154c-0.51-0.397-1.102-0.774-1.798-1.111c-0.852-0.413-1.581-0.791-2.205-1.135
							c-2.909-1.603-4.793-4.596-4.905-7.916c-0.003-0.075-0.003-0.115-0.003-0.115l-3.211-0.137l-2.964-2.815
							c0,0-1.275,6.055-3.069,7.1c0,0-0.872,0.873-3.72,1.86C167.162,302.141,168.252,302.81,169.313,303.512z"/>
						<path style="fill:#FA7C4E;" d="M179.255,297.461c-1.511,0.24-3.314-0.063-4.832-1.412c-0.775-0.692-1.348-1.641-1.776-2.647
							l0-0.004c0.037-0.135,0.064-0.263,0.088-0.368c0.304,0.477,0.654,0.908,1.06,1.27c1.649,1.467,3.636,1.694,5.217,1.341
							c-0.001,0.005,0.003,0.01,0.003,0.018C179.035,296.271,179.119,296.877,179.255,297.461z"/>
					</g>
					<g>
						<path style="fill:#F7563C;" d="M202.002,317.947c-0.005,0.125-0.013,0.254-0.027,0.379c-0.424,3.584-5.391,7.98-7.034,9.35
							c-0.33,0.272-0.527,0.424-0.527,0.424l-8.123-5.008c-0.344,1.058-0.732,2.022-1.098,2.91c-0.054,0.143-0.112,0.281-0.165,0.42
							c-0.312,0.754-0.594,1.446-0.803,2.089c-0.451,1.383-0.754,3.878-0.951,6.15c-0.022,0.192-0.036,0.384-0.049,0.567
							c-0.192,2.374-0.268,4.365-0.268,4.365c1.201,3.794,2.16,14.451,2.856,25.069c0.014,0.147,0.022,0.299,0.031,0.446
							c0.844,12.952,1.29,25.694,1.29,25.694c-2.124,0.75-4.467,0.263-6.672-0.205c-1.33-0.277-2.682-0.544-4.035-0.714
							c-0.205-0.027-0.406-0.049-0.616-0.067h-0.005c-1.714-0.178-3.428-0.17-5.106,0.205c-1.915,0.424-3.713,1.312-5.601,1.812
							c-0.143,0.04-0.286,0.08-0.433,0.112h-0.004c-0.344,0.08-0.692,0.143-1.044,0.188c-4.664,0.589-9.136-1.361-13.836-1.361
							c0,0,0-9.774,0.665-20.878c0.009-0.161,0.018-0.322,0.031-0.482c0.183-3.013,0.42-6.114,0.719-9.14
							c1.41-14.353,7.141-23.208,7.141-23.208c-1.624-4.325,0.295-10.631,1.093-12.903l-3.178,3.495
							c-0.071-0.013-0.143-0.031-0.214-0.049c-6.159-1.379-8.208-6.297-8.864-8.815c-0.241-0.915-0.294-1.513-0.294-1.513
							s0.736-0.96,1.83-2.357c0.089-0.116,0.183-0.232,0.281-0.357c1.906-2.423,4.713-5.922,6.717-8.109
							c0.107-0.112,0.21-0.223,0.308-0.33c0.33-0.353,0.634-0.661,0.902-0.915c2.316-2.821,12.019-5.597,12.019-5.597
							c0.817-2.084,2.303-1.897,2.303-1.897s2.789,5.28,5.731,5.762c2.937,0.487,3.012-3.905,3.012-3.905
							c1.486-0.071,1.562,1.825,1.562,1.825s1.46,1.348,2.325,1.933c0.861,0.585,5.074,2.343,5.074,2.343
							c0.21,0.085,0.482,0.245,0.799,0.473c0.116,0.08,0.241,0.17,0.37,0.268c2.879,2.187,8.69,8.181,10.952,10.551
							c0.112,0.116,0.214,0.223,0.308,0.321C201.774,317.706,202.002,317.947,202.002,317.947z"/>
						<g>
							<g>
								<g>
									<g>
										<path style="fill:#FFFFFF;" d="M185.845,365.108c-1.888,0.156-3.669,1.192-4.726,2.776
											c-1.486,2.227-1.424,5.088-1.236,7.828l0.009,0.085c0.072,1.058,0.147,2.156-0.098,3.213
											c-0.295,1.25-1.04,2.241-2.004,2.656c-0.37,0.161-0.781,0.25-1.178,0.33c-0.714,0.152-1.388,0.294-1.718,0.835
											c-0.161,0.263-0.21,0.598-0.241,0.915c-0.196,2.156,0.491,4.374,1.776,6.137c-0.205-0.027-0.406-0.049-0.616-0.067h-0.005
											c-1.187-1.781-1.794-3.95-1.598-6.11c0.031-0.375,0.094-0.763,0.304-1.107c0.428-0.705,1.232-0.875,2.008-1.035
											c0.375-0.08,0.763-0.165,1.093-0.303c0.83-0.362,1.482-1.241,1.741-2.352c0.232-0.991,0.161-2.053,0.089-3.079
											l-0.009-0.085c-0.183-2.696-0.25-5.766,1.312-8.109c1.134-1.691,3.039-2.807,5.066-2.972
											C185.827,364.809,185.836,364.961,185.845,365.108z"/>
									</g>
									<g>
										<path style="fill:#FFFFFF;" d="M165.101,391.833c-0.143,0.04-0.286,0.08-0.433,0.112h-0.004
											c-0.379-1.209-1.102-2.236-2.075-2.914c-0.705-0.495-1.544-0.852-2.361-1.201c-1.393-0.594-2.839-1.21-3.651-2.526
											c-0.857-1.384-0.714-3.044-0.571-4.646c0.045-0.536,0.094-1.094,0.098-1.62c0.054-3.441-1.808-6.833-4.731-8.641
											c-0.299-0.183-0.607-0.353-0.924-0.504c0.009-0.161,0.018-0.322,0.031-0.482c0.384,0.183,0.763,0.384,1.125,0.607
											c3.057,1.888,4.999,5.432,4.945,9.024c-0.004,0.544-0.053,1.107-0.103,1.651c-0.138,1.602-0.268,3.115,0.509,4.374
											c0.736,1.201,2.053,1.759,3.45,2.357c0.83,0.353,1.696,0.723,2.437,1.241C163.905,389.405,164.69,390.517,165.101,391.833
											z"/>
									</g>
									<g>
										<path style="fill:#FFFFFF;" d="M185.194,326.003c-0.054,0.143-0.112,0.281-0.165,0.42
											c-0.112-0.058-0.228-0.107-0.344-0.152c-0.919-0.348-1.991-0.286-2.861,0.165c-0.312,0.161-0.728,0.442-0.919,0.87
											c-0.156,0.33-0.165,0.719-0.156,1.094c0.058,1.866,0.669,3.745,1.727,5.289c0.259,0.379,0.527,0.705,0.799,0.973
											c-0.022,0.192-0.036,0.384-0.049,0.567c-0.388-0.339-0.763-0.768-1.12-1.29c-1.102-1.611-1.745-3.575-1.803-5.525
											c-0.009-0.428,0.005-0.879,0.196-1.294c0.196-0.429,0.58-0.799,1.12-1.08c0.982-0.509,2.187-0.58,3.227-0.188
											C184.966,325.896,185.082,325.945,185.194,326.003z"/>
									</g>
									<g>
										<path style="fill:#FFFFFF;" d="M158.674,312.542c-0.281,1.928-1.026,3.624-2.151,4.909
											c-0.866,0.986-1.888,1.535-2.852,1.535c-0.094,0-0.183-0.004-0.277-0.013c-1.134-0.129-1.995-0.973-2.714-1.754
											c-0.683-0.741-1.339-1.509-1.968-2.299c0.089-0.116,0.183-0.232,0.281-0.357c0.647,0.808,1.321,1.593,2.017,2.352
											c0.661,0.723,1.451,1.504,2.432,1.611c1.267,0.143,2.343-0.91,2.745-1.37c1.067-1.218,1.776-2.839,2.044-4.682
											c0.143-0.986,0.112-1.75-0.103-2.406c-0.237-0.719-0.71-1.344-1.16-1.946l-1.259-1.669c0.107-0.112,0.21-0.223,0.308-0.33
											l1.303,1.732c0.455,0.603,0.973,1.285,1.232,2.071C158.79,310.654,158.83,311.484,158.674,312.542z"/>
									</g>
									<g>
										<path style="fill:#FFFFFF;" d="M201.377,317.286c-1.732,1.464-3.776,2.343-5.798,2.446
											c-0.129,0.009-0.259,0.013-0.388,0.013c-3.182,0-6.114-2.017-6.918-4.811c-0.076-0.254-0.129-0.513-0.169-0.772
											c-0.058-0.366-0.085-0.736-0.089-1.098c-0.013-1.165,0.223-2.289,0.464-3.222c0.326-1.263,0.75-2.499,1.267-3.695
											c0.116,0.08,0.241,0.17,0.37,0.268c-0.491,1.151-0.893,2.334-1.205,3.539c-0.357,1.375-0.701,3.164-0.21,4.856
											c0.768,2.669,3.78,4.637,6.851,4.481c1.919-0.098,3.865-0.937,5.516-2.325
											C201.18,317.081,201.283,317.188,201.377,317.286z"/>
									</g>
									<g>
										<path style="fill:#FFFFFF;" d="M165.256,333.427c-1.036,0-1.971-0.286-2.682-0.848c-1.729-1.366-1.757-3.953-0.905-5.694
											c0.919-1.877,2.676-3.166,4.275-4.178c0.427-0.271,0.876-0.575,1.344-0.891c2.388-1.616,5.361-3.627,8.124-2.955
											c0.525,0.128,1.072,0.294,1.517,0.647c1.347,1.067,1.058,3.091,0.723,4.521c-0.415,1.776-0.932,3.611-2.268,4.828
											c-0.751,0.684-1.686,1.098-2.591,1.498c-0.288,0.127-0.576,0.255-0.857,0.391c-0.569,0.274-1.132,0.594-1.676,0.904
											c-0.875,0.498-1.779,1.012-2.749,1.362C166.739,333.289,165.973,333.427,165.256,333.427z M174.28,319.175
											c-2.292,0-4.731,1.65-6.743,3.011c-0.472,0.319-0.925,0.626-1.355,0.898l0,0c-1.546,0.979-3.243,2.22-4.113,3.997
											c-0.775,1.584-0.766,3.927,0.781,5.148c1.082,0.855,2.768,0.99,4.51,0.362c0.934-0.337,1.822-0.842,2.68-1.33
											c0.551-0.313,1.12-0.637,1.702-0.918c0.286-0.138,0.578-0.267,0.871-0.397c0.872-0.386,1.773-0.785,2.471-1.42
											c1.241-1.13,1.734-2.892,2.133-4.599c0.307-1.312,0.582-3.16-0.566-4.07c-0.377-0.299-0.869-0.447-1.345-0.563
											C174.969,319.212,174.626,319.175,174.28,319.175z"/>
									</g>
									<g>
										<path style="fill:#FFFFFF;" d="M172.242,375.362c-0.257,0-0.519-0.031-0.782-0.096c-0.326-0.081-0.575-0.204-0.759-0.377
											c-0.277-0.258-0.401-0.618-0.51-0.935l-0.049-0.142c-0.43-1.206-1.311-2.269-2.417-2.915
											c-0.653-0.382-1.413-0.646-2.147-0.902c-1.299-0.452-2.641-0.92-3.472-2.055c-0.791-1.081-0.955-2.638-0.438-4.164
											c0.844-2.494,2.61-4.446,4.973-5.496c2.517-1.118,5.48-1.102,8.129,0.043c1.067,0.462,1.678,1.04,1.868,1.768
											c0.141,0.54,0.021,1.078-0.096,1.598c-0.022,0.098-0.044,0.197-0.064,0.294c-0.305,1.484-0.136,3.048,0.027,4.56
											c0.026,0.246,0.053,0.491,0.077,0.736c0.182,1.818,0.242,3.732-0.544,5.411
											C175.383,374.086,173.9,375.362,172.242,375.362z M170.6,357.897c-1.306,0-2.594,0.263-3.779,0.789
											c-2.248,0.999-3.928,2.857-4.731,5.231c-0.47,1.389-0.329,2.793,0.376,3.758c0.748,1.023,1.968,1.447,3.258,1.897
											c0.755,0.263,1.535,0.535,2.226,0.938c1.195,0.699,2.147,1.847,2.612,3.15l0.051,0.147
											c0.101,0.294,0.197,0.572,0.393,0.755c0.128,0.119,0.312,0.207,0.563,0.269c1.666,0.414,3.375-0.86,4.065-2.332
											c0.74-1.581,0.68-3.423,0.504-5.177c-0.024-0.244-0.051-0.488-0.077-0.732c-0.167-1.546-0.339-3.145-0.02-4.698
											c0.02-0.1,0.043-0.201,0.066-0.302c0.11-0.489,0.213-0.951,0.1-1.387c-0.153-0.587-0.681-1.068-1.613-1.471
											C173.305,358.176,171.943,357.897,170.6,357.897z"/>
									</g>
								</g>
								<g>
									<path style="fill:#F7563C;" d="M161.676,337.439c-0.418-0.921-0.703-1.903-0.89-2.903c-0.192-1-0.259-2.023-0.235-3.042
										c0.035-1.019,0.161-2.037,0.411-3.024l0.204-0.735l0.238-0.723l0.288-0.704c0.105-0.231,0.215-0.458,0.328-0.684
										c-0.069,0.244-0.14,0.485-0.217,0.724l-0.191,0.728l-0.174,0.729l-0.141,0.735c-0.166,0.983-0.277,1.972-0.301,2.966
										c-0.035,0.993,0.019,1.988,0.127,2.978C161.238,335.476,161.433,336.458,161.676,337.439z"/>
									<path style="fill:#F7563C;" d="M165.146,338.251c-0.071-1.225,0.026-2.443,0.189-3.65c0.176-1.205,0.418-2.402,0.826-3.56
										c-0.061,1.225-0.221,2.423-0.384,3.622C165.6,335.861,165.424,337.057,165.146,338.251z"/>
									<path style="fill:#F7563C;" d="M169.122,338.923c0.267-1.425,0.607-2.815,0.928-4.213c0.334-1.395,0.647-2.792,1.043-4.186
										c-0.047,1.45-0.285,2.881-0.608,4.288C170.148,336.216,169.724,337.603,169.122,338.923z"/>
									<path style="fill:#F7563C;" d="M173.434,339.542c0.254-1.312,0.592-2.586,0.922-3.865c0.342-1.276,0.675-2.551,1.101-3.818
										c-0.079,1.335-0.337,2.644-0.669,3.932C174.442,337.074,174.021,338.341,173.434,339.542z"/>
									<path style="fill:#F7563C;" d="M179.116,339.524c0.118-1.378,0.367-2.723,0.648-4.062c0.295-1.336,0.622-2.664,1.084-3.968
										c-0.116,1.373-0.365,2.721-0.648,4.062C179.904,336.894,179.576,338.226,179.116,339.524z"/>
									<path style="fill:#F7563C;" d="M162.719,338.545c-0.202,0.43-0.218,0.874-0.256,1.333c-0.032,0.463-0.09,0.924-0.153,1.383
										c-0.141,0.917-0.316,1.828-0.625,2.72c-0.04-0.943,0.056-1.866,0.184-2.785c0.072-0.458,0.149-0.915,0.252-1.369
										C162.218,339.38,162.358,338.87,162.719,338.545z"/>
									<path style="fill:#F7563C;" d="M167.19,339.891c0.127,0.281,0.12,0.536,0.082,0.786c-0.052,0.247-0.137,0.489-0.357,0.706
										c-0.128-0.281-0.121-0.536-0.082-0.786C166.887,340.349,166.972,340.108,167.19,339.891z"/>
									<path style="fill:#F7563C;" d="M171.504,340.486c0.176,0.149,0.215,0.298,0.223,0.446
										c-0.007,0.149-0.046,0.298-0.223,0.446c-0.177-0.149-0.217-0.298-0.223-0.446
										C171.288,340.783,171.328,340.634,171.504,340.486z"/>
									<path style="fill:#F7563C;" d="M176.175,340.569c0.035,0.909-0.171,1.81-0.498,2.653c-0.339,0.839-0.807,1.636-1.456,2.274
										c0.354-0.835,0.724-1.622,1.041-2.438C175.592,342.246,175.862,341.42,176.175,340.569z"/>
									<path style="fill:#F7563C;" d="M180.735,339.741c0.218,0.612,0.195,1.284,0.04,1.908c-0.166,0.622-0.472,1.22-0.96,1.65
										c0.187-0.618,0.382-1.177,0.528-1.761C180.5,340.956,180.599,340.372,180.735,339.741z"/>
									<path style="fill:#F7563C;" d="M159.379,324.344c0.611-0.811,1.316-1.521,2.042-2.209c0.736-0.677,1.494-1.33,2.346-1.883
										c-0.611,0.811-1.315,1.522-2.042,2.209C160.989,323.138,160.231,323.791,159.379,324.344z"/>
									<path style="fill:#F7563C;" d="M169.347,300.02c0.439,0.525,0.884,1.041,1.358,1.531c0.463,0.499,0.943,0.979,1.449,1.43
										c0.507,0.448,1.022,0.886,1.577,1.264c0.55,0.38,1.126,0.728,1.743,0.955c0.61,0.242,1.263,0.364,1.897,0.279
										c0.622-0.094,1.274-0.361,1.861-0.645c0.592-0.299,1.133-0.704,1.556-1.219c0.434-0.504,0.735-1.134,0.833-1.81
										c0.004,0.688-0.263,1.369-0.659,1.943c-0.409,0.571-0.959,1.034-1.564,1.387c-0.297,0.19-0.622,0.325-0.945,0.458
										c-0.327,0.117-0.655,0.247-1.021,0.304c-0.726,0.111-1.457-0.027-2.117-0.281c-1.321-0.527-2.424-1.417-3.396-2.388
										C170.946,302.252,170.077,301.18,169.347,300.02z"/>
									<path style="fill:#F7563C;" d="M186.381,323.079l0.607-2.807c0.191-0.935,0.383-1.868,0.524-2.805
										c0.15-0.933,0.213-1.879,0.266-2.83c0.026-0.475,0.036-0.952,0.034-1.428c0.012-0.478-0.002-0.955-0.018-1.436
										c0.218,0.939,0.298,1.904,0.327,2.868c0.028,0.963-0.024,1.934-0.168,2.894c-0.156,0.955-0.362,1.897-0.633,2.82
										C187.053,321.278,186.756,322.193,186.381,323.079z"/>
									<path style="fill:#F7563C;" d="M193.968,327.319c0.352-0.36,0.71-0.709,1.053-1.075c0.352-0.355,0.701-0.712,1.039-1.08
										c0.677-0.733,1.361-1.458,1.997-2.223c0.642-0.759,1.265-1.534,1.836-2.346c0.153-0.197,0.276-0.412,0.416-0.617
										c0.14-0.206,0.271-0.417,0.389-0.635c0.122-0.216,0.267-0.423,0.371-0.649c0.107-0.225,0.22-0.448,0.337-0.672
										c-0.256,0.976-0.71,1.893-1.226,2.762c-0.515,0.873-1.14,1.671-1.784,2.448c-0.654,0.769-1.356,1.495-2.096,2.177
										C195.56,326.089,194.795,326.745,193.968,327.319z"/>
									<path style="fill:#F7563C;" d="M147.329,317.129c0.165,0.547,0.346,1.085,0.576,1.604c0.211,0.525,0.459,1.033,0.724,1.531
										c0.541,0.988,1.175,1.922,1.92,2.756c0.353,0.437,0.778,0.802,1.18,1.192c0.442,0.341,0.862,0.717,1.344,1.007
										c0.922,0.652,1.975,1.074,3.034,1.506c-0.277-0.066-0.554-0.137-0.831-0.213c-0.277-0.075-0.559-0.139-0.822-0.257
										l-0.798-0.335c-0.266-0.113-0.508-0.273-0.764-0.409c-0.524-0.256-0.962-0.642-1.437-0.977
										c-0.425-0.394-0.869-0.772-1.24-1.219c-0.764-0.872-1.41-1.848-1.891-2.898
										C147.844,319.369,147.477,318.265,147.329,317.129z"/>
									<path style="fill:#F7563C;" d="M162.358,302.249c0.627,0.475,1.114,1.096,1.514,1.76c0.389,0.672,0.697,1.398,0.809,2.177
										c-0.441-0.648-0.804-1.303-1.193-1.95C163.111,303.582,162.713,302.948,162.358,302.249z"/>
									<path style="fill:#F7563C;" d="M169.29,361.686c0.016,0.6-0.111,1.198-0.279,1.776c-0.181,0.576-0.418,1.13-0.655,1.677
										c-0.475,1.096-1.006,2.168-1.563,3.225c-0.564,1.053-1.156,2.092-1.798,3.1c-0.638,1.01-1.308,1.999-2.037,2.947
										l1.742-3.121c0.57-1.044,1.147-2.082,1.7-3.134c0.563-1.046,1.101-2.106,1.648-3.162c0.274-0.528,0.54-1.057,0.759-1.604
										C169.039,362.847,169.206,362.278,169.29,361.686z"/>
									<path style="fill:#F7563C;" d="M171.719,363.319c-0.255,1.335-0.596,2.652-0.982,3.956
										c-0.381,1.306-0.834,2.589-1.323,3.859c-0.499,1.265-1.035,2.517-1.637,3.736c-0.303,0.609-0.612,1.214-0.931,1.814
										c-0.335,0.592-0.663,1.186-1.024,1.763l0.827-1.859c0.278-0.618,0.551-1.237,0.815-1.86
										c0.526-1.247,1.048-2.494,1.534-3.755c0.496-1.257,0.956-2.529,1.413-3.802
										C170.863,365.894,171.286,364.607,171.719,363.319z"/>
								</g>
							</g>
							<g>
								<g>
									<path style="fill:#631F27;" d="M176.48,339.999c-9.612,0-18.107-2.689-18.211-2.722l0.137-0.425
										c0.127,0.041,12.812,4.054,24.668,2.224l0.068,0.441C180.921,339.859,178.671,339.999,176.48,339.999z"/>
								</g>
								<g>
									<path style="fill:#631F27;" d="M173.663,339.836l-0.314-0.021c-3.251-0.213-5.031-2.087-5.066-3.357
										c-0.02-0.727,0.479-1.223,1.335-1.327c2.617-0.314,3.908,4.209,3.961,4.402L173.663,339.836z M169.873,335.562
										c-0.066,0-0.134,0.004-0.202,0.013c-0.621,0.075-0.956,0.385-0.942,0.871c0.028,1.032,1.579,2.607,4.322,2.896
										C172.73,338.388,171.634,335.562,169.873,335.562z"/>
								</g>
								<g>
									<path style="fill:#631F27;" d="M173.859,339.841c-0.171,0-0.344-0.008-0.518-0.026l-0.314-0.032l0.135-0.286
										c0.09-0.19,2.223-4.637,4.509-3.796c0.66,0.243,0.957,0.739,0.813,1.36C178.207,338.263,176.199,339.841,173.859,339.841z
										 M173.716,339.392c2.158,0.056,4.09-1.377,4.334-2.431c0.092-0.4-0.082-0.675-0.533-0.841
										C175.913,335.528,174.221,338.436,173.716,339.392z"/>
								</g>
								<g>
									<path style="fill:#631F27;" d="M170.452,351.162c-0.297-0.56-0.543-1.071-0.541-1.651c0.002-0.593,0.267-1.112,0.525-1.614
										c0.203-0.396,0.395-0.771,0.462-1.173c0.082-0.496-0.028-1.054-0.328-1.658c-0.056-0.113-0.116-0.223-0.176-0.334
										c-0.144-0.265-0.293-0.539-0.386-0.842c-0.164-0.536-0.138-1.116,0.075-1.635c0.252-0.614,0.738-1.082,1.166-1.496
										c0.552-0.532,1.122-1.083,1.829-1.461l0.211,0.394c-0.652,0.349-1.2,0.877-1.729,1.388
										c-0.397,0.383-0.846,0.817-1.063,1.344c-0.171,0.417-0.194,0.903-0.062,1.334c0.08,0.26,0.212,0.503,0.352,0.76
										c0.063,0.116,0.126,0.231,0.184,0.348c0.342,0.69,0.466,1.339,0.368,1.93c-0.078,0.47-0.295,0.894-0.505,1.304
										c-0.244,0.476-0.474,0.925-0.475,1.411c-0.001,0.478,0.221,0.935,0.489,1.441L170.452,351.162z"/>
								</g>
								<g>
									<path style="fill:#631F27;" d="M175.471,352.471l-0.422-0.146c0.309-0.897,0.629-1.825,0.842-2.763
										c0.461-2.027,0.405-4.031-0.164-5.795c-0.101-0.315-0.249-0.722-0.492-1.07c-0.154-0.223-0.344-0.418-0.544-0.626
										c-0.16-0.165-0.325-0.336-0.473-0.524c-0.458-0.579-0.718-1.262-0.969-1.923l0.417-0.159
										c0.239,0.629,0.487,1.279,0.902,1.805c0.134,0.17,0.285,0.326,0.444,0.491c0.204,0.211,0.414,0.429,0.589,0.681
										c0.276,0.397,0.439,0.844,0.55,1.189c0.593,1.841,0.653,3.926,0.174,6.031
										C176.108,350.623,175.784,351.563,175.471,352.471z"/>
								</g>
							</g>
						</g>
					</g>
				</g>
				<g>
					<g>
						<path style="fill:#FEA26F;" d="M165.52,351.286c-0.085,0.165-3.932-0.313-3.932-0.313s2.455,1.879,2.089,2.116
							c-0.37,0.237-5.485-0.96-6.391-1.504c-0.031-0.018-0.058-0.045-0.085-0.067l-0.005,0.009c0,0-19.82-13.795-18.928-17.736
							c0.509-2.236,4.95-9.176,8.908-15c0.656,2.517,2.705,7.435,8.864,8.815c-3.432,3.762-6.293,6.846-6.293,6.846l8.52,12.108
							c0.625-0.536,1.758-1.495,1.995-1.62c0.33-0.174,0.125,1.116-0.031,2.236c-0.152,1.12,4.508,0.098,4.927,0.692
							c0.419,0.598-2.91,1.107-2.91,1.107s3.271,0.692,3.294,1.143c0.018,0.451-0.705,0.477-0.705,0.477
							S165.605,351.121,165.52,351.286z"/>
						<g>
							<path style="fill:#FEA26F;" d="M164.854,350.528c-0.521-0.192-1.055-0.314-1.592-0.42c-0.539-0.097-1.081-0.178-1.636-0.188
								c0.521,0.192,1.055,0.314,1.592,0.42C163.757,350.437,164.298,350.517,164.854,350.528z"/>
						</g>
					</g>
					<path style="fill:#FA7C4E;" d="M145.32,331.336c0.821,0.365,1.562,0.841,2.286,1.343c0.715,0.514,1.412,1.054,2.029,1.707
						c-0.821-0.364-1.563-0.84-2.286-1.343C146.634,332.529,145.938,331.988,145.32,331.336z"/>
				</g>
			</g>
			<g>
				<g>
					<path style="fill:#FEA26F;" d="M183.316,285.387c-0.003-0.009-0.003-0.014-0.007-0.019c-0.072-0.425-0.184-0.85-0.332-1.274
						c-1.292-3.57-4.965-5.51-8.212-4.341c-2.821,1.017-4.377,4.056-3.892,7.179c-0.266-0.113-0.68-0.225-1.023-0.033
						c-0.534,0.298-0.577,4.233,1.915,4.08c0.44,1.24,1.083,2.475,2.031,3.32c2.56,2.276,5.942,1.57,7.333,0.339
						c0.487-0.366,0.884-0.809,1.209-1.295c0.702-1.039,1.068-2.297,1.217-3.538C183.765,288.109,183.582,286.443,183.316,285.387z"
						/>
				</g>
				<g>
					<path style="fill:#3D232F;" d="M185.943,296.962c-0.192,0.594-0.665,1.058-1.196,1.383c-0.531,0.33-1.12,0.545-1.687,0.808
						c-0.634,0.294-1.227,0.723-1.807,1.16c-0.214-0.402-0.585-0.754-1.223-0.741c-0.344-0.665-0.603-1.375-0.777-2.111
						c-0.067-0.29-0.12-0.58-0.161-0.879v-0.013c-0.022-0.138-0.036-0.281-0.049-0.424c-0.013-0.161-0.027-0.326-0.031-0.487
						c0.005-0.004,0-0.009,0-0.013c0.875-0.196,1.62-0.567,2.115-1.004c0.487-0.366,0.884-0.812,1.21-1.299
						c0.701-1.035,1.067-2.294,1.218-3.535c0-0.009,0-0.013,0.005-0.022c0.112-0.915,0.107-1.816,0.036-2.624
						c-0.348-0.652-0.754-1.259-1.312-1.736c-1.031-0.879-2.482-1.223-3.361-2.254c-0.04-0.045-0.071-0.094-0.107-0.138
						c-0.5,0.464-1.16,0.745-1.79,1.036c-0.741,0.339-1.504,0.768-1.861,1.5c-0.616,1.267,0.263,2.825-0.143,4.173
						c-0.326,1.071-1.383,1.776-1.79,2.821c-0.013,0.04-0.031,0.08-0.045,0.12c-0.388,1.169,0.076,2.468,0.031,3.713
						c-0.049,1.348-0.687,2.593-1.317,3.789c0,0-3.825-0.42-7.458-4.16c-0.482-0.495-0.277-1.473,0.112-2.049
						c0.388-0.571,0.946-1.022,1.312-1.607c0.732-1.174,0.594-2.665,0.509-4.044c-0.085-1.379-0.027-2.923,0.946-3.905
						c0.129-0.13,0.268-0.241,0.415-0.353c0.25-0.188,0.509-0.357,0.745-0.562c0.977-0.852,1.406-2.156,2.169-3.2
						c0.955-1.308,2.477-2.191,4.088-2.374c0.214-0.022,0.424-0.036,0.638-0.036c1.406,0,2.812,0.513,3.874,1.437
						c0.022,0.005,3.414,0.687,4.525,3.209c0.679,1.535,1.027,3.763,1.366,5.503c0.214,1.125,0.424,2.048,0.714,2.455
						C186.604,291.539,185.943,296.962,185.943,296.962z"/>
					<g>
						<path style="opacity:0.5;fill:#3D232F;" d="M173.219,296.395c-0.049,1.348-0.687,2.593-1.317,3.789c0,0-3.825-0.42-7.458-4.16
							c-0.482-0.495-0.277-1.473,0.112-2.049c0.388-0.571,0.946-1.022,1.312-1.607c0.732-1.174,0.594-2.665,0.509-4.044
							c-0.085-1.379-0.027-2.923,0.946-3.905c0.129-0.13,0.268-0.241,0.415-0.353c0.04,1.495,0.259,2.981,0.652,4.418
							c0.179,0.652,0.397,1.308,0.786,1.861c0.544,0.795,1.388,1.334,2.267,1.732c0.562,0.254,1.147,0.46,1.745,0.602
							C172.8,293.851,173.264,295.15,173.219,296.395z"/>
						<path style="opacity:0.5;fill:#3D232F;" d="M185.943,296.962c-0.192,0.594-0.665,1.058-1.196,1.383
							c-0.531,0.33-1.12,0.545-1.687,0.808c-0.634,0.294-1.227,0.723-1.807,1.16c-0.214-0.402-0.585-0.754-1.223-0.741
							c-0.344-0.665-0.603-1.375-0.777-2.111c-0.067-0.29-0.12-0.58-0.161-0.879v-0.013c-0.022-0.138-0.036-0.281-0.049-0.424
							c-0.013-0.161-0.027-0.326-0.031-0.487c0.005-0.004,0-0.009,0-0.013c0.875-0.196,1.62-0.567,2.115-1.004
							c0.487-0.366,0.884-0.812,1.21-1.299c0.701-1.035,1.067-2.294,1.218-3.535c0-0.009,0-0.013,0.005-0.022
							c0.549-0.558,1.062-1.156,1.584-1.741c0.214,1.125,0.424,2.048,0.714,2.455C186.604,291.539,185.943,296.962,185.943,296.962z
							"/>
					</g>
				</g>
			</g>
		</g>
	</g>
	<g>
		<path style="fill:#EDDBBB;" d="M47.269,373.536c0.183,9.922,19.559,17.61,43.276,17.172c23.718-0.438,42.796-8.836,42.613-18.758
			c-0.183-9.922-19.559-17.61-43.276-17.172C66.164,355.216,47.086,363.614,47.269,373.536z"/>
		<g>
			<g>
				<polygon style="fill:#C34432;" points="77.273,355.497 77.273,346.473 70.502,346.473 70.504,356.04 				"/>
				<g>
					<path style="fill:#D16526;" d="M69.758,354.552h8.271l0.744,9.278c0,0,2.662,3.02,4.745,4.289
						c2.083,1.269,1.557,2.582,0.638,2.932c-0.919,0.35-6.346,1.094-11.423-4.07v4.322h-3.151L69.758,354.552z"/>
					<g>
						<rect x="75.337" y="357.043" style="fill:#842B28;" width="2.908" height="0.423"/>
					</g>
					<g>
						<rect x="75.337" y="358.881" style="fill:#842B28;" width="2.908" height="0.423"/>
					</g>
					<g>
						<rect x="75.337" y="360.72" style="fill:#842B28;" width="3.203" height="0.423"/>
					</g>
					<g>
						<rect x="75.337" y="362.557" style="fill:#842B28;" width="3.351" height="0.423"/>
					</g>
					<g>
						
							<rect x="76.177" y="356.038" transform="matrix(0.9995 -0.0309 0.0309 0.9995 -11.109 2.5356)" style="fill:#842B28;" width="0.422" height="8.472"/>
					</g>
					<path style="fill:#631F27;" d="M72.734,366.981c5.077,5.164,10.504,4.42,11.423,4.07c0.202-0.077,0.382-0.202,0.523-0.362
						c-7.843-0.287-9.445-6.007-15.025-6.173l-0.071,6.786h3.151V366.981z"/>
					<g>
						<path style="fill:#842B28;" d="M73.958,365.795l-0.421-0.008c0.079-4.085-3.448-4.404-3.599-4.416l0.033-0.421
							C70.012,360.953,74.045,361.318,73.958,365.795z"/>
					</g>
					<g>
						<path style="fill:#842B28;" d="M80.045,369.125l-0.42-0.041c0.002-0.022,0.241-2.205,2.484-2.205v0.423
							C80.253,367.301,80.052,369.051,80.045,369.125z"/>
					</g>
				</g>
			</g>
			<g>
				<polygon style="fill:#C34432;" points="107.925,353.552 106.004,344.735 99.388,346.176 101.427,355.523 				"/>
				<g>
					<path style="fill:#D16526;" d="M100.381,354.228l8.082-1.76l2.702,8.907c0,0,3.244,2.384,5.549,3.181
						c2.305,0.797,2.071,2.192,1.248,2.729c-0.823,0.538-5.968,2.42-12.027-1.546l0.92,4.223l-3.079,0.671L100.381,354.228z"/>
					<g>
						
							<rect x="106.375" y="355.16" transform="matrix(0.977 -0.2134 0.2134 0.977 -73.3501 31.1954)" style="fill:#842B28;" width="2.908" height="0.422"/>
					</g>
					<g>
						
							<rect x="106.766" y="356.956" transform="matrix(0.977 -0.2134 0.2134 0.977 -73.7408 31.3295)" style="fill:#842B28;" width="2.908" height="0.422"/>
					</g>
					<g>
						
							<rect x="107.154" y="358.721" transform="matrix(0.977 -0.2134 0.2134 0.977 -74.1052 31.4844)" style="fill:#842B28;" width="3.203" height="0.422"/>
					</g>
					<g>
						
							<rect x="107.544" y="360.501" transform="matrix(0.977 -0.2134 0.2134 0.977 -74.4745 31.6244)" style="fill:#842B28;" width="3.35" height="0.422"/>
					</g>
					<g>
						
							<rect x="107.866" y="354.172" transform="matrix(0.97 -0.243 0.243 0.97 -83.8617 37.0104)" style="fill:#842B28;" width="0.423" height="8.473"/>
					</g>
					<path style="fill:#631F27;" d="M105.934,365.739c6.06,3.965,11.204,2.083,12.027,1.546c0.181-0.118,0.33-0.279,0.434-0.465
						c-7.724,1.388-10.507-3.859-15.995-2.834l1.375,6.646l3.079-0.671L105.934,365.739z"/>
					<g>
						<path style="fill:#842B28;" d="M106.465,364.401c-0.79-3.998-4.307-3.571-4.456-3.55l-0.057-0.418
							c0.041-0.006,4.059-0.508,4.927,3.885L106.465,364.401z"/>
					</g>
					<g>
						<path style="fill:#842B28;" d="M113.114,366.326c-0.003-0.022-0.233-2.205,1.958-2.683l0.09,0.413
							c-1.822,0.397-1.638,2.147-1.63,2.221L113.114,366.326z"/>
					</g>
				</g>
			</g>
			<path style="fill:#3D232F;" d="M83.937,208.467c5.252,0,6.597,3.02,7.418,6.302s1.379,3.972,2.724,4.989
				c1.346,1.018,0.853,2.035,1.083,3.151c0.23,1.116,1.74,1.937,2.166,4.3c0.427,2.363-1.51,6.302-1.51,6.302H68.445
				c0,0-1.28-3.775,1.018-6.433c2.298-2.659,4.398-4.829,4.267-7.075c-0.131-2.247,0.853-4.267,3.315-5.079
				c2.462-0.811,2.002-2.551,2.33-3.7C79.703,210.076,81.18,208.467,83.937,208.467z"/>
			<path style="fill:#FFB619;" d="M96.857,230.863c3.032,2.812,9.334,17.807,11.369,27.246l-16.871,2.809
				C91.355,260.918,89.886,234.025,96.857,230.863z"/>
			<path style="fill:#F58616;" d="M96.127,235.449c0,0,2.253,1.443,2.515,5.677c0.263,4.234-0.219,8.567,1.619,11.455
				c1.838,2.888,3.004,4.981,3.077,6.342l-10.22,1.701l0.184-20.035L96.127,235.449z"/>
			<g>
				
					<rect x="88.777" y="256.958" transform="matrix(0.9738 -0.2275 0.2275 0.9738 -58.2424 30.3796)" style="fill:#D37734;" width="27.834" height="21.882"/>
				
					<rect x="103.668" y="256.084" transform="matrix(0.9738 -0.2275 0.2275 0.9738 -57.0969 31.7731)" style="fill:#FFFFFF;" width="11.291" height="15.085"/>
				<g>
					
						<rect x="113.963" y="255.336" transform="matrix(0.9738 -0.2274 0.2274 0.9738 -56.6868 32.815)" style="fill:#D36161;" width="0.162" height="14.081"/>
				</g>
				<g>
					
						<rect x="113.292" y="255.493" transform="matrix(0.9738 -0.2275 0.2275 0.9738 -56.7432 32.6688)" style="fill:#D36161;" width="0.162" height="14.081"/>
				</g>
				<g>
					
						<rect x="112.62" y="255.65" transform="matrix(0.9738 -0.2275 0.2275 0.9738 -56.798 32.5213)" style="fill:#D36161;" width="0.162" height="14.081"/>
				</g>
				<path style="fill:#FFEAAB;" d="M110.897,258.091l1.741,7.455c0.239,1.022,0.999,1.842,2,2.157l1.123,0.353
					c0.843,0.265,1.484,0.956,1.685,1.817l1.288,5.515l-27.104,6.331l-4.977-21.309l20.393-4.718
					C108.771,255.293,110.494,256.366,110.897,258.091z"/>
			</g>
			<g>
				<path style="fill:#3D232F;" d="M95.841,258.796l20.832,84.706c0,0-4.727,6.411-15.93,4.486c0,0-10.153,5.777-18.206,1.4
					c0,0-10.679,4.376-18.556-1.4c0,0-10.503,2.757-16.455-4.486l22.56-84.706H95.841z"/>
				<g>
					<polygon style="fill:#B2B9D3;" points="100.255,346.254 89.887,260.641 90.162,260.608 100.53,346.22 					"/>
				</g>
				<g>
					
						<rect x="39.949" y="303.946" transform="matrix(0.0184 -0.9998 0.9998 0.0184 -222.7501 381.2748)" style="fill:#B2B9D3;" width="85.718" height="0.277"/>
				</g>
				<g>
					
						<rect x="28.488" y="303.647" transform="matrix(0.1465 -0.9892 0.9892 0.1465 -240.013 329.4037)" style="fill:#B2B9D3;" width="84.779" height="0.277"/>
				</g>
				<path style="fill:#2B1921;" d="M95.841,258.796H70.086l-5.458,20.492c2.945,0.301,7.222-0.224,9.327-2.987
					c2.534-3.326,6.131-6.827,9.313-7.177c3.182-0.35,4.695-2.188,6.756-4.573c1.377-1.594,4.576-2.415,6.548-2.785L95.841,258.796z
					"/>
			</g>
			<path style="fill:#FFB619;" d="M88.664,226.848c0,0,0.672-1.477,1.342-1.001c0.671,0.476,0.889,1.089,2.728,1.833
				c1.838,0.744,4.123,3.184,4.123,3.184l-0.841,4.322c0,0,1.05,1.904,0.088,6.63c-0.963,4.727-0.681,7.569,0.753,10.305
				c1.435,2.736,0,4.837,0,4.837l0.534,3.589H66.169l2.538-5.661l2.14-25.711c0,0,2.017-1.583,3.899-2.239
				c0.706-0.246,0.577-2.08,2.265-0.613C78.699,227.79,88.664,226.848,88.664,226.848z"/>
			<polygon style="fill:#3D232F;" points="96.857,256.958 67.778,256.958 66.169,260.547 97.391,260.547 			"/>
			<path style="fill:#F58616;" d="M73.955,236.958c0,0,1.842,7.943,5.453,10.438c3.611,2.495,2.166,6.63,3.742,9.322
				s-13.064,0.919-13.064,0.919L73.955,236.958z"/>
			<path style="fill:#FFFFFF;" d="M87.548,226.017l2.232,0.799c0,0,1.214,7.615-1.772,14.311c0,0-8.14-13.359-10.996-14.803
				l1.81-0.476L87.548,226.017z"/>
			<g>
				<path style="fill:#FFFFFF;" d="M87.902,244.28c-0.003,0-0.005,0-0.008,0c-0.693-0.003-1.289-0.4-1.554-1.035
					c-3.316-7.929-10.988-15.203-11.065-15.275c-0.076-0.071-0.079-0.19-0.008-0.265c0.072-0.076,0.19-0.079,0.265-0.008
					c0.078,0.073,7.806,7.4,11.155,15.404c0.207,0.493,0.67,0.802,1.209,0.804c0.002,0,0.004,0,0.007,0
					c0.531,0,0.99-0.3,1.198-0.784c2.497-5.814,2.971-11.85,2.333-15.253c-0.019-0.102,0.048-0.2,0.15-0.219
					c0.103-0.021,0.2,0.048,0.219,0.15c0.649,3.459,0.171,9.583-2.357,15.47C89.177,243.893,88.586,244.28,87.902,244.28z"/>
			</g>
			<path style="fill:#FFB619;" d="M88.314,251.137l-16.087,3.56l3.343-18.266c0.157-0.859,0.031-1.743-0.366-2.52
				c-0.827-1.621-2.44-4.267-4.356-4.736c0,0-4.569,3.713-8.967,11.951c-4.398,8.239-6.499,20.449-3.807,24.913
				c2.691,4.464,7.56,4.464,10.017,3.151c2.456-1.313,4.557-0.131,7.314-1.51c2.757-1.379,2.56-2.823,4.464-3.348
				c1.904-0.525,6.324,0.197,8.446-4.661V251.137z"/>
			<g>
				<path style="fill:#FFFFFF;" d="M66.803,255.855c-0.087,0-0.165-0.061-0.183-0.149c-0.021-0.102,0.044-0.201,0.145-0.222
					l20.648-4.339c0.101-0.018,0.201,0.044,0.222,0.145c0.021,0.102-0.044,0.201-0.145,0.222l-20.648,4.339
					C66.829,255.853,66.816,255.855,66.803,255.855z"/>
			</g>
			<g>
				<path style="fill:#FFFFFF;" d="M73.44,254.46c-0.061,0-0.121-0.03-0.157-0.084c-1.41-2.138-5.135-2.123-5.192-2.132
					c-0.001,0-0.001,0-0.002,0c-0.103,0-0.187-0.083-0.188-0.186c-0.001-0.104,0.082-0.189,0.186-0.189
					c0.164-0.014,3.989-0.005,5.509,2.3c0.057,0.087,0.033,0.203-0.053,0.26C73.511,254.45,73.476,254.46,73.44,254.46z"/>
			</g>
			<g>
				<path style="fill:#FFFFFF;" d="M72.507,253.352c-0.011,0-0.023-0.001-0.034-0.003c-0.102-0.019-0.17-0.116-0.151-0.218
					l2.896-15.827c0.019-0.102,0.119-0.168,0.218-0.151c0.102,0.019,0.17,0.116,0.151,0.218l-2.896,15.827
					C72.675,253.289,72.596,253.352,72.507,253.352z"/>
			</g>
			<g>
				<path style="fill:#C34432;" d="M111.771,277.014l-1.091,0.255c-0.516,0.12-1.057-0.018-1.451-0.372l-1.276-1.182
					c-0.384-0.355-0.969-0.377-1.378-0.052l-2.045,1.628c-0.383,0.305-0.434,0.869-0.111,1.237l1.127,1.285
					c0.545,0.621,1.476,0.721,2.14,0.229L111.771,277.014z"/>
				<g>
					
						<rect x="107.379" y="275.282" transform="matrix(0.6492 -0.7606 0.7606 0.6492 -172.9525 179.0241)" style="fill:#9C1C1C;" width="0.46" height="3.466"/>
				</g>
				<g>
					
						<rect x="106.566" y="275.984" transform="matrix(0.6492 -0.7606 0.7606 0.6492 -173.7661 178.6375)" style="fill:#9C1C1C;" width="0.46" height="3.465"/>
				</g>
				<g>
					
						<rect x="105.69" y="276.632" transform="matrix(0.6493 -0.7605 0.7605 0.6493 -174.5598 178.1796)" style="fill:#9C1C1C;" width="0.46" height="3.465"/>
				</g>
			</g>
			<g>
				<g>
					<path style="fill:#2B1921;" d="M89.706,214.933l-0.421-0.018c0.073-1.699-0.744-3.213-0.753-3.228l0.37-0.203
						C88.938,211.549,89.785,213.113,89.706,214.933z"/>
				</g>
				<g>
					<path style="fill:#2B1921;" d="M88.129,214.933l-0.421-0.018c0.073-1.704-0.744-3.213-0.753-3.228l0.369-0.203
						C87.36,211.549,88.208,213.113,88.129,214.933z"/>
				</g>
				<g>
					<path style="fill:#2B1921;" d="M86.552,214.933l-0.421-0.018c0.072-1.704-0.744-3.213-0.753-3.228l0.369-0.203
						C85.784,211.549,86.63,213.113,86.552,214.933z"/>
				</g>
				<g>
					<path style="fill:#2B1921;" d="M84.975,214.933l-0.421-0.018c0.073-1.704-0.744-3.213-0.753-3.228l0.369-0.203
						C84.206,211.549,85.053,213.113,84.975,214.933z"/>
				</g>
				<g>
					<path style="fill:#2B1921;" d="M83.398,214.933l-0.421-0.018c0.073-1.704-0.744-3.213-0.753-3.228l0.369-0.203
						C82.629,211.549,83.476,213.113,83.398,214.933z"/>
				</g>
			</g>
			<g>
				<g>
					<path style="fill:#FFFFFF;" d="M88.103,223.309c-1.139,0-2.066-0.927-2.066-2.067c0-0.921,0.618-1.739,1.504-1.989l0.088,0.313
						c-0.746,0.21-1.267,0.899-1.267,1.676c0,0.96,0.781,1.742,1.742,1.742c0.96,0,1.741-0.781,1.741-1.742
						c0-0.833-0.593-1.552-1.409-1.709l0.062-0.319c0.969,0.187,1.672,1.04,1.672,2.029
						C90.169,222.382,89.242,223.309,88.103,223.309z"/>
				</g>
				<path style="fill:#C34432;" d="M89.495,214.924h-6.491c-0.279,0.663-0.866,1.638-1.93,1.769l-0.48,7.633
					c-0.039,0.621-0.466,1.15-1.065,1.32l-0.844,0.239c0,0,3.972,3.589,7.976,9.3c1.346-3.381,0.886-9.169,0.886-9.169l-1.247-0.503
					v-3.064c1.4,0.285,2.516-1.422,2.998-2.713c0.481-1.291-0.197-2.495-0.197-2.495L89.495,214.924z"/>
				<path style="fill:#9C1C1C;" d="M86.301,222.45c-1.231-0.131-3.024-1.016-4.239-2.629c0,0-0.274,4.828,4.239,5.419V222.45z"/>
				<path style="fill:#C34432;" d="M81.33,216.799c0.358,0.723,0.214,1.524-0.322,1.79c-0.536,0.266-1.261-0.105-1.619-0.828
					c-0.358-0.723-0.214-1.524,0.323-1.79C80.247,215.706,80.972,216.077,81.33,216.799z"/>
				<path style="fill:#FFFFFF;" d="M80.806,217.802c-0.063-0.012-0.124,0.029-0.137,0.092c-0.012,0.063,0.029,0.125,0.092,0.137
					c0.99,0.191,1.708,1.063,1.708,2.072c0,1.164-0.947,2.111-2.111,2.111c-1.164,0-2.111-0.947-2.111-2.111
					c0-0.885,0.563-1.671,1.382-1.974c-0.051-0.061-0.098-0.126-0.142-0.195c-0.877,0.353-1.474,1.208-1.474,2.169
					c0,1.292,1.051,2.344,2.344,2.344c1.293,0,2.344-1.051,2.344-2.344C82.703,218.982,81.906,218.014,80.806,217.802z"/>
			</g>
			<g>
				<path style="fill:#C34432;" d="M89.55,251.568c1.648-0.244,2.759-1.175,4.622-2.071c1.863-0.896,5.489-0.932,5.718-0.591
					c0.229,0.34-3.103,0.914-3.103,0.914s3.69-0.072,3.726,0.466c0.036,0.537-3.678,0.597-3.678,0.597s3.177,0.142,3.105,0.686
					c-0.072,0.544-3.296,0.365-3.296,0.365s2.579,0.251,2.544,0.573c-0.036,0.323-2.006-0.072-2.687,0.287
					c-0.681,0.358-2.615,1.999-4.621,1.143l-2.329,1.114V251.568z"/>
				<polygon style="fill:#F58616;" points="90.024,250.7 90.024,258.665 88.314,259.671 88.314,251.137 				"/>
			</g>
		</g>
	</g>
	<path style="fill:#FFB619;" d="M538.427,197.327c1.517,0.575,3.127,3.196,3.231,4.815c0.252,3.889,0.619,12.055-0.168,18.573
		c-1.072,8.885-29.72,6.74-31.098,6.74c-1.379,0-4.749,8.003-9.345,10.053c-4.596,2.05,3.196-6.682,3.36-10.665
		c0,0-11.216,0.613-15.407-1.992c-4.191-2.604-4.927-19.22-2.639-26.503C488.384,191.914,525.964,192.601,538.427,197.327z"/>
</g>
</svg>
